<svg id="Calque_1" data-name="Calque 1" xmlns="http://www.w3.org/2000/svg" viewBox="0 0 199.131 200.669"><defs><style>.cls-1{fill:#ecbed4;}.cls-2{fill:#e55b2b;}.cls-3{fill:none;}</style></defs><title>amoureux</title><path class="cls-1" d="M81.588,79.257c-6.8,0-11.645,2.765-15.069,4.867a6.249,6.249,0,0,1-7.177-.449C56.888,81.711,53.4,79.5,46.216,79.95c-18.733,1.171-31.9,17.938-31.9,40.921s19.377,41.615,38.146,41.615c6.936,0,7.124-2.178,10.4-3.468,3.28,1.29,4.161,3.468,10.4,3.468,18.769,0,38.146-18.632,38.146-41.615S100.358,79.257,81.588,79.257Z"/><rect class="cls-1" x="11.399" y="5.277" width="174.735" height="183.757"/><path class="cls-2" d="M118.494,99.8l-.986-.167,13.1-77.692a3.28,3.28,0,0,0-5.673-2.739L65.69,85.023l-.742-.67,59.359-65.946a4.229,4.229,0,0,1,7.313,3.532Z"/><path class="cls-3" d="M14.311,120.871c0,22.984,19.378,41.615,38.147,41.615,6.936,0,7.124-2.178,10.4-3.468,3.279,1.29,4.161,3.468,10.4,3.468,18.77,0,38.147-18.631,38.147-41.615S100.358,79.257,81.588,79.257c-6.8,0-11.646,2.765-15.069,4.868a6.25,6.25,0,0,1-7.177-.45C56.888,81.711,53.4,79.5,46.216,79.95c-18.733,1.171-31.9,17.938-31.9,40.921"/><path class="cls-2" d="M73.266,162.986a13.231,13.231,0,0,1-8.141-2.217,15.849,15.849,0,0,0-2.264-1.212,12.046,12.046,0,0,0-2.147,1.223c-1.619,1.084-3.292,2.206-8.256,2.206-18.243,0-38.646-18.011-38.646-42.115,0-23.2,13.312-40.228,32.373-41.42,7.079-.441,10.654,1.581,13.469,3.833a5.761,5.761,0,0,0,6.6.414c2.811-1.726,8.045-4.941,15.33-4.941,17.854,0,30.324,17.318,30.324,42.114C111.912,144.975,91.509,162.986,73.266,162.986Zm-10.405-4.5.184.072a16.292,16.292,0,0,1,2.6,1.362,12.242,12.242,0,0,0,7.62,2.071c17.77,0,37.646-17.583,37.646-41.115,0-24.207-12.058-41.114-29.324-41.114-6.462,0-11.031,2.475-14.807,4.794a6.774,6.774,0,0,1-7.752-.485c-2.658-2.127-6.059-4.033-12.782-3.617-18.509,1.157-31.435,17.779-31.435,40.422,0,23.532,19.876,41.115,37.646,41.115,4.659,0,6.136-.99,7.7-2.037a12.571,12.571,0,0,1,2.521-1.4Z"/><ellipse class="cls-1" cx="38.003" cy="125.724" rx="7.862" ry="13.18"/><path class="cls-2" d="M38,113.544c3.72,0,6.862,5.578,6.862,12.18S41.723,137.9,38,137.9s-6.861-5.577-6.861-12.18,3.142-12.18,6.861-12.18m0-1c-4.342,0-7.861,5.9-7.861,13.18S33.661,138.9,38,138.9s7.862-5.9,7.862-13.18-3.52-13.18-7.862-13.18Z"/><ellipse class="cls-1" cx="60.202" cy="125.724" rx="7.862" ry="13.18"/><path class="cls-2" d="M60.2,113.544c3.719,0,6.862,5.578,6.862,12.18S63.921,137.9,60.2,137.9s-6.862-5.577-6.862-12.18,3.142-12.18,6.862-12.18m0-1c-4.342,0-7.862,5.9-7.862,13.18S55.86,138.9,60.2,138.9s7.862-5.9,7.862-13.18-3.52-13.18-7.862-13.18Z"/><circle class="cls-2" cx="39.627" cy="128.848" r="5.895"/><circle class="cls-2" cx="61.128" cy="130.235" r="5.895"/><path class="cls-2" d="M158.07,42.121c-8.008-1.62-15.731-7-22.994-16.038l-.414-.514.607-.26c.238-.1,24.12-9.94,42.567,11.945l.328.39-.4.321A24.714,24.714,0,0,1,160.505,42.5Q159.284,42.366,158.07,42.121ZM136.29,25.992c7.691,9.386,15.86,14.6,24.3,15.508a24.4,24.4,0,0,0,16.133-4.008C160.462,18.624,140.1,24.639,136.29,25.992Z"/><path class="cls-2" d="M49.528,151.246A11.038,11.038,0,0,0,61.385,145.5c.427-.862-.866-1.623-1.3-.757A9.523,9.523,0,0,1,49.927,149.8c-.942-.19-1.346,1.256-.4,1.447Z"/><path class="cls-2" d="M60.908,47.16a3.542,3.542,0,0,0-3.97-.185c-1.824.824-2.1,2.878-2.276,3.048-.172-1.374-.561-4.08-2.992-4.175a4.342,4.342,0,0,0-4.1,2.3,7.083,7.083,0,0,0-.8,4.932,10.455,10.455,0,0,0,2.57,4.327c1.363,1.619,3.047,3.287,3.441,5.449a.2.2,0,0,0,.208.181.215.215,0,0,0,.214-.069c1.881-2.011,4.334-2.981,6.634-4.32a7.451,7.451,0,0,0,3.953-5.463A6.236,6.236,0,0,0,60.908,47.16Z"/><path class="cls-2" d="M166.146,69.865a3.542,3.542,0,0,0-3.97-.185c-1.824.824-2.1,2.878-2.276,3.049-.172-1.375-.561-4.081-2.992-4.176a4.339,4.339,0,0,0-4.1,2.305,7.076,7.076,0,0,0-.8,4.931,10.459,10.459,0,0,0,2.57,4.328c1.363,1.618,3.047,3.286,3.441,5.449a.2.2,0,0,0,.208.18.215.215,0,0,0,.214-.069c1.881-2.011,4.334-2.98,6.634-4.319a7.452,7.452,0,0,0,3.953-5.464A6.237,6.237,0,0,0,166.146,69.865Z"/><path class="cls-1" d="M138.33,93.092c-6.8,0-11.646,2.766-15.069,4.868a6.25,6.25,0,0,1-7.177-.449c-2.454-1.964-5.938-4.174-13.126-3.725-18.733,1.171-31.9,17.938-31.9,40.921s19.378,41.614,38.147,41.614c6.936,0,7.124-2.177,10.4-3.467,3.279,1.29,4.161,3.467,10.4,3.467,18.77,0,38.147-18.631,38.147-41.614S157.1,93.092,138.33,93.092Z"/><path class="cls-2" d="M138.33,94.092c8.6,0,15.907,4.063,21.123,11.75,4.966,7.319,7.7,17.57,7.7,28.865,0,23.245-19.612,40.614-37.147,40.614a11.823,11.823,0,0,1-7.359-2,16.552,16.552,0,0,0-2.678-1.4l-.366-.144-.366.144a12.941,12.941,0,0,0-2.617,1.447c-1.5,1-2.914,1.951-7.421,1.951-17.535,0-37.147-17.369-37.147-40.614,0-22.367,12.734-38.784,30.967-39.923.6-.038,1.2-.057,1.766-.057,5.466,0,8.36,1.713,10.673,3.564a7.249,7.249,0,0,0,8.325.521c3.719-2.283,8.216-4.72,14.546-4.72m0-1c-6.8,0-11.646,2.766-15.069,4.868a6.251,6.251,0,0,1-7.177-.449c-2.236-1.79-5.328-3.784-11.3-3.784q-.871,0-1.828.059c-18.733,1.171-31.9,17.938-31.9,40.921S90.43,176.321,109.2,176.321c6.936,0,7.124-2.177,10.4-3.467,3.279,1.29,4.161,3.467,10.4,3.467,18.77,0,38.147-18.631,38.147-41.614S157.1,93.092,138.33,93.092Z"/><ellipse class="cls-1" cx="87.247" cy="134.741" rx="7.862" ry="13.18"/><path class="cls-2" d="M87.247,122.56c3.72,0,6.862,5.578,6.862,12.181s-3.142,12.18-6.862,12.18-6.862-5.578-6.862-12.18,3.143-12.181,6.862-12.181m0-1c-4.342,0-7.862,5.9-7.862,13.181s3.52,13.18,7.862,13.18,7.862-5.9,7.862-13.18-3.52-13.181-7.862-13.181Z"/><ellipse class="cls-1" cx="109.446" cy="134.741" rx="7.862" ry="13.18"/><path class="cls-2" d="M109.446,122.56c3.719,0,6.862,5.578,6.862,12.181s-3.143,12.18-6.862,12.18-6.862-5.578-6.862-12.18,3.142-12.181,6.862-12.181m0-1c-4.342,0-7.862,5.9-7.862,13.181s3.52,13.18,7.862,13.18,7.862-5.9,7.862-13.18-3.52-13.181-7.862-13.181Z"/><circle class="cls-2" cx="85.403" cy="135.783" r="5.895"/><circle class="cls-2" cx="107.597" cy="137.864" r="5.895"/><path class="cls-2" d="M99.306,160.938a11.038,11.038,0,0,0,11.857-5.743c.427-.862-.866-1.623-1.3-.757a9.523,9.523,0,0,1-10.162,5.053c-.942-.19-1.346,1.256-.4,1.447Z"/></svg>