<svg id="Calque_1" data-name="Calque 1" xmlns="http://www.w3.org/2000/svg" viewBox="0 0 199.131 200.669"><defs><style>.cls-1{fill:#967b2b;}.cls-2{fill:#f7e975;}</style></defs><title>bizarre</title><rect class="cls-1" y="0.769" width="199.131" height="199.131"/><path class="cls-2" d="M79.914,96.792c5.395,0,9.785,7.662,9.785,17.08s-4.39,17.08-9.785,17.08-9.784-7.662-9.784-17.08,4.389-17.08,9.784-17.08m0-1c-5.956,0-10.784,8.095-10.784,18.08s4.828,18.08,10.784,18.08S90.7,123.857,90.7,113.872s-4.829-18.08-10.785-18.08Z"/><path class="cls-2" d="M113.241,67.269c5.395,0,9.785,7.662,9.785,17.08s-4.39,17.08-9.785,17.08-9.784-7.662-9.784-17.08,4.389-17.08,9.784-17.08m0-1c-5.956,0-10.784,8.094-10.784,18.08s4.828,18.08,10.784,18.08,10.785-8.095,10.785-18.08-4.829-18.08-10.785-18.08Z"/><circle class="cls-2" cx="76.656" cy="117.614" r="7.527"/><circle class="cls-2" cx="116.499" cy="80.642" r="7.527"/><path class="cls-2" d="M87.71,174.974a14.209,14.209,0,0,1-3.391-.42A12.788,12.788,0,0,1,74.314,161.6l.085-6.492-5.3,3.758a13.157,13.157,0,0,1-19.184-17l3.093-5.709-6.436.868a13.157,13.157,0,0,1-9.087-23.964l5.392-3.618-6.1-2.223a13.157,13.157,0,0,1,3.09-25.442l6.455-.7-4.369-4.8a13.157,13.157,0,0,1,14.56-21.093l6.04,2.383-1.637-6.284a13.156,13.156,0,0,1,22.693-11.91L87.854,44.3l1.47-6.324A12.79,12.79,0,0,1,102.14,27.8h0a12.787,12.787,0,0,1,12.814,10.177l1.471,6.324,4.241-4.916a13.156,13.156,0,0,1,22.693,11.91l-1.636,6.284,6.041-2.383a13.157,13.157,0,0,1,14.559,21.093l-4.37,4.8,6.456.7A13.156,13.156,0,0,1,167.5,107.23l-6.1,2.223,5.391,3.618a13.157,13.157,0,0,1-9.088,23.964l-6.435-.868,3.093,5.709a13.156,13.156,0,0,1-19.183,17l-5.3-3.758.086,6.492a13.157,13.157,0,0,1-24.885,6.134l-2.941-5.789L99.2,167.739A12.721,12.721,0,0,1,87.71,174.974ZM75.424,153.158l-.11,8.461a12.157,12.157,0,0,0,22.993,5.667l3.833-7.543,3.832,7.543a12.157,12.157,0,0,0,22.994-5.667l-.111-8.461,6.9,4.9a12.157,12.157,0,0,0,17.726-15.7l-4.031-7.44,8.385,1.13a12.157,12.157,0,0,0,8.4-22.142l-7.027-4.714,7.95-2.9A12.157,12.157,0,0,0,164.3,82.782l-8.413-.909,5.694-6.259a12.156,12.156,0,0,0-13.452-19.489l-7.871,3.1,2.133-8.188a12.157,12.157,0,0,0-20.969-11L115.9,46.443,113.98,38.2a12.156,12.156,0,0,0-23.681,0l-1.916,8.242-5.528-6.407a12.157,12.157,0,0,0-20.969,11l2.133,8.188-7.87-3.1A12.157,12.157,0,0,0,42.7,75.614l5.694,6.259-8.412.909a12.157,12.157,0,0,0-2.856,23.509l7.951,2.9L38.047,113.9a12.156,12.156,0,0,0,8.4,22.142l8.385-1.13-4.03,7.44a12.157,12.157,0,0,0,17.727,15.7Z"/></svg>