<svg id="Calque_1" data-name="Calque 1" xmlns="http://www.w3.org/2000/svg" viewBox="0 0 199.131 200.669"><defs><style>.cls-1{fill:none;stroke:#ecbed4;stroke-miterlimit:10;}.cls-2{fill:#ecbed4;}</style></defs><title>curieux</title><path class="cls-1" d="M191.936,184.733l7.052-18.594,1.338.67L200.537,32.9l-5.119-15.4c-6.369-19.163-33.27-19.723-40.431-.842l-7.052,18.6-17.779-8.91C112.1,17.289,92.685,35.915,100.972,54.33l8.162,18.134L90.262,78.736c-19.163,6.369-19.723,33.27-.841,40.431l18.594,7.051L99.106,144c-9.048,18.053,9.579,37.471,27.993,29.183l18.135-8.161,6.271,18.871C157.874,203.054,184.775,203.614,191.936,184.733Z"/><path class="cls-2" d="M169.1,100.813v1c11.461,0,20.921,5.392,21.087,12.02.081,3.253-2.031,6.406-5.948,8.877a30.823,30.823,0,0,1-15.456,4.216c-.315.008-.63.012-.943.012-11.462,0-20.922-5.392-21.088-12.019-.173-6.921,9.429-12.794,21.4-13.094.315-.008.63-.012.943-.012v-1m0,0c-.321,0-.645,0-.968.013-12.546.313-22.565,6.634-22.378,14.118.182,7.29,9.982,12.994,22.087,12.994q.482,0,.968-.012c12.546-.314,22.565-6.634,22.378-14.118-.182-7.291-9.982-13-22.087-13Z"/><path class="cls-2" d="M167.884,62.786v1c11.461,0,20.921,5.392,21.086,12.019.082,3.254-2.031,6.406-5.947,8.877A30.824,30.824,0,0,1,167.567,88.9c-.315.008-.631.012-.943.012-11.462,0-20.922-5.392-21.088-12.02-.081-3.253,2.031-6.406,5.948-8.877A30.818,30.818,0,0,1,166.94,63.8c.315-.008.63-.012.943-.012v-1m0,0c-.321,0-.645,0-.969.012-12.546.314-22.565,6.635-22.377,14.118.182,7.291,9.982,13,22.087,13q.482,0,.968-.012c12.546-.314,22.565-6.635,22.378-14.119-.182-7.29-9.982-13-22.087-12.994Z"/><circle class="cls-2" cx="154.951" cy="114.899" r="9.46"/><circle class="cls-2" cx="153.823" cy="76.428" r="9.46"/></svg>