<svg id="a7f502e4-23d0-4052-ab53-a8815f9b0fb8" data-name="Calque 1" xmlns="http://www.w3.org/2000/svg" viewBox="0 0 199.13 200.67"><defs><style>.f8abb325-62f0-41a4-bf8e-bd5c0274ad09{fill:#f7e975;}.befbb188-b79a-4f38-86b0-ac5e0d186499{fill:none;stroke:#959dcb;stroke-miterlimit:10;}.a82e7088-ed60-4e5d-9a19-5bcf3e5affa0{fill:#959dcb;}</style></defs><title>distrait</title><rect class="f8abb325-62f0-41a4-bf8e-bd5c0274ad09" x="12.1" y="13.33" width="172.93" height="172.93"/><path class="befbb188-b79a-4f38-86b0-ac5e0d186499" d="M65.14,97.62l57.6-63.88A1.51,1.51,0,0,1,125.35,35L113.1,107.64"/><path class="f8abb325-62f0-41a4-bf8e-bd5c0274ad09" d="M74.67,161.06a10.43,10.43,0,0,1-6.5-1.77,14.69,14.69,0,0,0-2.25-1.17l-.18-.08-.19.08a11.53,11.53,0,0,0-2.18,1.2c-1.33.9-2.59,1.74-6.57,1.74-15.23,0-32.27-15.07-32.27-35.25,0-19.41,11.08-33.66,26.94-34.65.54,0,1.05,0,1.54,0a13.63,13.63,0,0,1,9.39,3.14,5.89,5.89,0,0,0,6.74.43c3.24-2,7.15-4.11,12.68-4.11,14.79,0,25.12,14.49,25.12,35.24C106.94,146,89.91,161.06,74.67,161.06Z"/><path class="a82e7088-ed60-4e5d-9a19-5bcf3e5affa0" d="M81.82,91.07c7.34,0,13.58,3.47,18,10,4.25,6.26,6.59,15,6.59,24.71,0,19.89-16.77,34.75-31.77,34.75a9.9,9.9,0,0,1-6.24-1.7,15.7,15.7,0,0,0-2.33-1.21l-.36-.14-.37.14a11.41,11.41,0,0,0-2.27,1.26c-1.33.88-2.47,1.65-6.3,1.65-15,0-31.77-14.86-31.77-34.75,0-19.13,10.89-33.17,26.47-34.15.52,0,1,0,1.51,0a13.19,13.19,0,0,1,9.08,3,6.36,6.36,0,0,0,7.31.46c3.18-1.95,7-4,12.42-4m0-1c-5.83,0-10,2.37-12.94,4.18a5.38,5.38,0,0,1-6.17-.39A14.12,14.12,0,0,0,53,90.61c-.5,0-1,0-1.57,0C35.35,91.67,24,106.07,24,125.81s16.65,35.75,32.77,35.75c6,0,6.12-1.87,8.94-3,2.81,1.11,3.57,3,8.93,3,16.13,0,32.77-16,32.77-35.75S98,90.07,81.82,90.07Z"/><path class="f8abb325-62f0-41a4-bf8e-bd5c0274ad09" d="M123.41,172.94a10.44,10.44,0,0,1-6.5-1.76,13.85,13.85,0,0,0-2.25-1.18l-.18-.07-.19.07a11,11,0,0,0-2.18,1.21c-1.33.89-2.59,1.73-6.57,1.73-15.23,0-32.27-15.07-32.27-35.24,0-19.41,11.08-33.66,26.94-34.65.54,0,1.05,0,1.54,0a13.63,13.63,0,0,1,9.39,3.14,5.9,5.9,0,0,0,3.67,1.29,5.82,5.82,0,0,0,3.07-.87c3.24-2,7.15-4.11,12.68-4.11,14.79,0,25.12,14.5,25.12,35.25C155.68,157.87,138.64,172.94,123.41,172.94Z"/><path class="a82e7088-ed60-4e5d-9a19-5bcf3e5affa0" d="M130.56,103c7.34,0,13.58,3.47,18,10,4.25,6.27,6.59,15,6.59,24.72,0,19.88-16.77,34.74-31.77,34.74a9.91,9.91,0,0,1-6.24-1.69,14.8,14.8,0,0,0-2.33-1.22l-.36-.14-.37.14a11.41,11.41,0,0,0-2.27,1.26c-1.33.89-2.47,1.65-6.3,1.65-15,0-31.77-14.86-31.77-34.74,0-19.14,10.89-33.18,26.47-34.15.52,0,1,0,1.51,0a13.14,13.14,0,0,1,9.08,3,6.36,6.36,0,0,0,7.31.46c3.18-2,7-4,12.42-4m0-1c-5.84,0-10,2.38-12.94,4.18a5.31,5.31,0,0,1-2.81.8,5.4,5.4,0,0,1-3.36-1.18,14.07,14.07,0,0,0-9.7-3.25c-.5,0-1,0-1.57,0-16.09,1-27.41,15.41-27.41,35.15s16.65,35.74,32.77,35.74c6,0,6.12-1.87,8.94-3,2.81,1.1,3.57,3,8.93,3,16.13,0,32.77-16,32.77-35.74S146.68,102,130.56,102Z"/><path class="f8abb325-62f0-41a4-bf8e-bd5c0274ad09" d="M44.38,140.8c-3.44,0-6.25-4.85-6.25-10.82s2.81-10.82,6.25-10.82S50.64,124,50.64,130,47.83,140.8,44.38,140.8Z"/><path class="a82e7088-ed60-4e5d-9a19-5bcf3e5affa0" d="M44.38,119.66c3.12,0,5.76,4.73,5.76,10.32S47.5,140.3,44.38,140.3s-5.75-4.72-5.75-10.32,2.64-10.32,5.75-10.32m0-1c-3.73,0-6.75,5.07-6.75,11.32s3,11.32,6.75,11.32,6.76-5.06,6.76-11.32-3-11.32-6.76-11.32Z"/><ellipse class="f8abb325-62f0-41a4-bf8e-bd5c0274ad09" cx="63.45" cy="129.98" rx="6.25" ry="10.82"/><path class="a82e7088-ed60-4e5d-9a19-5bcf3e5affa0" d="M63.45,119.66c3.12,0,5.76,4.73,5.76,10.32s-2.64,10.32-5.76,10.32S57.7,135.58,57.7,130s2.63-10.32,5.75-10.32m0-1c-3.73,0-6.75,5.07-6.75,11.32s3,11.32,6.75,11.32,6.76-5.06,6.76-11.32-3-11.32-6.76-11.32Z"/><path class="f8abb325-62f0-41a4-bf8e-bd5c0274ad09" d="M86.68,148.55c-3.44,0-6.25-4.86-6.25-10.82s2.81-10.82,6.25-10.82,6.26,4.85,6.26,10.82S90.13,148.55,86.68,148.55Z"/><path class="a82e7088-ed60-4e5d-9a19-5bcf3e5affa0" d="M86.68,127.41c3.12,0,5.76,4.72,5.76,10.32s-2.64,10.32-5.76,10.32-5.75-4.73-5.75-10.32,2.64-10.32,5.75-10.32m0-1c-3.73,0-6.75,5.06-6.75,11.32s3,11.32,6.75,11.32,6.76-5.07,6.76-11.32-3-11.32-6.76-11.32Z"/><path class="f8abb325-62f0-41a4-bf8e-bd5c0274ad09" d="M105.75,148.55c-3.45,0-6.25-4.86-6.25-10.82s2.8-10.82,6.25-10.82,6.25,4.85,6.25,10.82S109.2,148.55,105.75,148.55Z"/><path class="a82e7088-ed60-4e5d-9a19-5bcf3e5affa0" d="M105.75,127.41c3.12,0,5.75,4.72,5.75,10.32s-2.63,10.32-5.75,10.32S100,143.32,100,137.73s2.63-10.32,5.75-10.32m0-1c-3.73,0-6.75,5.06-6.75,11.32s3,11.32,6.75,11.32,6.75-5.07,6.75-11.32-3-11.32-6.75-11.32Z"/><circle class="a82e7088-ed60-4e5d-9a19-5bcf3e5affa0" cx="45.78" cy="133.26" r="5.06"/><circle class="a82e7088-ed60-4e5d-9a19-5bcf3e5affa0" cx="64.25" cy="133.86" r="5.06"/><circle class="a82e7088-ed60-4e5d-9a19-5bcf3e5affa0" cx="87.88" cy="135.35" r="5.06"/><circle class="a82e7088-ed60-4e5d-9a19-5bcf3e5affa0" cx="107.44" cy="135.35" r="5.06"/><path class="f8abb325-62f0-41a4-bf8e-bd5c0274ad09" d="M150.24,52.79c-6.65,0-13.71-3-21-8.93a32.55,32.55,0,0,1,16-4.36A31.92,31.92,0,0,1,165,46.65,21,21,0,0,1,150.24,52.79Z"/><path class="a82e7088-ed60-4e5d-9a19-5bcf3e5affa0" d="M145.27,39v1a31.2,31.2,0,0,1,19,6.7,20.48,20.48,0,0,1-14,5.59c-6.36,0-13.12-2.81-20.1-8.36A32,32,0,0,1,145.27,40V39m0,0a32.32,32.32,0,0,0-16.87,4.8c8.66,7.21,16,9.49,21.84,9.49a21.07,21.07,0,0,0,15.52-6.7C158.46,40.8,151.32,39,145.27,39Z"/><circle class="f8abb325-62f0-41a4-bf8e-bd5c0274ad09" cx="100.3" cy="160.16" r="4.13"/><path class="a82e7088-ed60-4e5d-9a19-5bcf3e5affa0" d="M100.3,156.53a3.63,3.63,0,1,1-3.63,3.63,3.63,3.63,0,0,1,3.63-3.63m0-1a4.63,4.63,0,1,0,4.62,4.63,4.63,4.63,0,0,0-4.62-4.63Z"/><path class="a82e7088-ed60-4e5d-9a19-5bcf3e5affa0" d="M50.36,145.49a.38.38,0,0,1,.34-.23,81.63,81.63,0,0,1,11.87-.81c1.89.06-1.56,7.42-4.85,7.69C55.57,152.31,49.61,147.92,50.36,145.49Z"/><path class="f8abb325-62f0-41a4-bf8e-bd5c0274ad09" d="M164.87,87.55a110.1,110.1,0,0,0-10,9.31"/><path class="a82e7088-ed60-4e5d-9a19-5bcf3e5affa0" d="M163.81,86.48a111.65,111.65,0,0,0-10,9.32,1.5,1.5,0,0,0,2.12,2.12,111.54,111.54,0,0,1,10-9.31,1.51,1.51,0,0,0,0-2.13,1.55,1.55,0,0,0-2.12,0Z"/><path class="a82e7088-ed60-4e5d-9a19-5bcf3e5affa0" d="M159,112.19h17.49a1.5,1.5,0,0,0,0-3H159a1.5,1.5,0,0,0,0,3Z"/></svg>