<svg id="a4b35f5a-c1f3-4d42-921f-f8fb0070287c" data-name="Calque 1" xmlns="http://www.w3.org/2000/svg" viewBox="0 0 199.1 200.7"><defs><style>.b4e233b0-527d-440d-9372-bc2ba60cf447{fill:#959dcb;}.e0383286-aeb1-45d1-b81c-65b0f9036b56{fill:#eef3df;}</style></defs><title>emu</title><path class="b4e233b0-527d-440d-9372-bc2ba60cf447" d="M102.5,12.6a17.1,17.1,0,0,1,16.6,12.2L124,41l.3,1.1,1-.5,15.6-6.5a17,17,0,0,1,6.9-1.4,17.3,17.3,0,0,1,14.7,8.5,16.8,16.8,0,0,1,.4,16.9l-8,15-.5.9,1,.4,15.7,6.4a17.3,17.3,0,0,1-1.5,32.5l-16.2,5-1.1.3.5,1,6.5,15.6a16.8,16.8,0,0,1-1.4,16.1,17.5,17.5,0,0,1-14.4,7.9,17.2,17.2,0,0,1-8.2-2.1l-14.9-7.9-1-.5-.4,1-6.4,15.6a17.3,17.3,0,0,1-32.5-1.4l-5-16.2-.3-1.1-1,.4-15.6,6.6a18,18,0,0,1-6.8,1.4,17.6,17.6,0,0,1-14.8-8.5,16.7,16.7,0,0,1-.3-16.9l7.9-15,.6-.9-1.1-.5-15.6-6.4c-8.4-3.3-11-10.8-10.8-16.7A17,17,0,0,1,29.5,75.4l16.2-5,1.1-.3-.4-1L39.8,53.5a17,17,0,0,1,1.4-16.2,17.9,17.9,0,0,1,14.5-7.8,16.9,16.9,0,0,1,8.1,2.1l15,7.9,1,.5.4-1,6.4-15.7a16.9,16.9,0,0,1,15.9-10.7m0-1A17.9,17.9,0,0,0,85.6,23L79.2,38.6,64.3,30.7a17.5,17.5,0,0,0-8.6-2.2C43.6,28.5,33.5,41,38.9,53.9l6.5,15.6L29.3,74.4c-16.5,5-17.5,27.9-1.6,34.4l15.6,6.4-7.9,14.9c-6.8,12.8,3.1,26.9,16,26.9a19.4,19.4,0,0,0,7.2-1.5L74.2,149l4.9,16.2a18.1,18.1,0,0,0,17.5,12.9,17.9,17.9,0,0,0,16.9-11.4l6.4-15.6,14.9,7.9a18.7,18.7,0,0,0,8.7,2.2c12.1,0,22.1-12.5,16.7-25.4l-6.5-15.6,16.2-4.9c16.4-5,17.5-27.9,1.5-34.4l-15.6-6.4,7.9-14.9c6.9-12.8-3.1-26.9-15.9-26.9a17.7,17.7,0,0,0-7.3,1.5l-15.6,6.5L120,24.5a18,18,0,0,0-17.5-12.9Z"/><path class="b4e233b0-527d-440d-9372-bc2ba60cf447" d="M88,72c5.8,0,10.6,8.2,10.6,18.3S93.8,108.6,88,108.6s-10.5-8.2-10.5-18.3S82.2,72,88,72m0-1c-6.3,0-11.5,8.6-11.5,19.3s5.2,19.3,11.5,19.3S99.6,101,99.6,90.3,94.4,71,88,71Z"/><path class="b4e233b0-527d-440d-9372-bc2ba60cf447" d="M120.4,71.7c5.8,0,10.5,8.3,10.5,18.4s-4.7,18.3-10.5,18.3-10.5-8.2-10.5-18.3,4.7-18.4,10.5-18.4m0-1c-6.4,0-11.5,8.7-11.5,19.4s5.1,19.3,11.5,19.3,11.5-8.6,11.5-19.3-5.1-19.4-11.5-19.4Z"/><circle class="b4e233b0-527d-440d-9372-bc2ba60cf447" cx="87.7" cy="83.5" r="8"/><circle class="b4e233b0-527d-440d-9372-bc2ba60cf447" cx="120.5" cy="83.4" r="8"/><path class="e0383286-aeb1-45d1-b81c-65b0f9036b56" d="M91.2,118a2.7,2.7,0,0,1-1.5-.5,4.8,4.8,0,0,1-1.4-3.5v-.4c0-3.8-.1-3.9-.3-4.1a1,1,0,0,0-.8-.5c-.6,0-1,.5-1.3,1.1a1.6,1.6,0,0,0-.3.6c-.4.9-.9,2.2-2.6,2.2h-.3c-1.2-.1-2-3.1-2.2-5.1a6.2,6.2,0,0,1,.1-1.3c.1-1.1.2-2.3-.7-3.2s-.6-1.2-.9-1.8l-.3-.8v-.2a3.1,3.1,0,0,1-.4-1.5h0a2.1,2.1,0,0,1,.3-1.2l.8-.2a6.3,6.3,0,0,1,3.4,1.5,3.2,3.2,0,0,0,1.7.6c.9,0,1.3-.7,1.7-1.1l.2-.3c.6-.5.8-.7,1.5-.7a2.4,2.4,0,0,1,1.3.7l.5.3.7.7a7.9,7.9,0,0,0,1.3,1.4h.3c2.1-.3,2.4-1.4,2.6-2.1s.2-.7.5-.8h.2a1.7,1.7,0,0,1,1.2.6c1.1.9,1,1.9.9,3.5v.6a1.6,1.6,0,0,1-.3,1.1l-.8.9-.3.2A7.9,7.9,0,0,0,93,111v.5c.2,4.2,0,5.4-.2,5.8A2,2,0,0,1,91.2,118Z"/><path class="b4e233b0-527d-440d-9372-bc2ba60cf447" d="M87.8,96.9v1a1.8,1.8,0,0,1,1,.6l.5.3.6.6a4.8,4.8,0,0,0,1.4,1.5l.3.2H92a3.1,3.1,0,0,0,3-2.5c.1-.1.1-.4.1-.4h.1a1.4,1.4,0,0,1,.9.5c.9.7.9,1.4.7,3.1v.6a2,2,0,0,1-.2.9l-.7.7-.3.2a8.6,8.6,0,0,0-3.1,6.8v.5c.2,4.2,0,5.2-.1,5.5a1.3,1.3,0,0,1-1.2.5,1.7,1.7,0,0,1-1.2-.4,4.1,4.1,0,0,1-1.2-3.1v-.4c0-3.9-.1-4.1-.3-4.4a1.7,1.7,0,0,0-1.3-.7c-.9,0-1.4.8-1.7,1.3a1.6,1.6,0,0,0-.4.7c-.4,1.1-.8,1.9-2.1,1.9h-.2c-.7,0-1.6-2.3-1.8-4.6a6.2,6.2,0,0,1,.1-1.3,4.1,4.1,0,0,0-.8-3.5,9.1,9.1,0,0,1-.8-1.7l-.3-.8v-.2c-.2-.4-.5-1-.4-1.2v-.2h0a1.2,1.2,0,0,1,.2-.8h.4c.4,0,1.3.2,3.2,1.4a4,4,0,0,0,1.9.7,2.7,2.7,0,0,0,2.1-1.3c0-.1.1-.2.2-.3s.6-.5,1.1-.5v-1m0,0h-.1a2,2,0,0,0-1.7.8c-.4.4-.7,1.3-1.6,1.3a2.7,2.7,0,0,1-1.4-.6c-1.8-1.1-2.9-1.5-3.7-1.5s-1.6,2-1.6,2a3.9,3.9,0,0,0,.6,2,12,12,0,0,0,1.3,2.8c1,1,.3,2.7.4,4.2s.8,5.4,2.7,5.5H83c2.5,0,2.9-2.4,3.3-3.1s.6-.8.9-.8a.5.5,0,0,1,.4.3,28.8,28.8,0,0,1,.2,4.2,5.1,5.1,0,0,0,1.6,3.9,3,3,0,0,0,1.8.6,2.2,2.2,0,0,0,2-1c.6-.9.3-5.4.3-6.5a7.9,7.9,0,0,1,2.7-6.1,3.2,3.2,0,0,0,1.2-1.1,2.3,2.3,0,0,0,.4-1.4c.1-1.8.4-3.3-1-4.5a2.6,2.6,0,0,0-1.6-.7h-.4c-1.2.4-.1,2.5-2.9,2.8-1-.8-1.4-1.7-2-2.1s-1.4-1.1-2.1-1.1Z"/><path class="e0383286-aeb1-45d1-b81c-65b0f9036b56" d="M117.1,119.3a1.8,1.8,0,0,1-1.6-.8c-.2-.3-.4-1.5-.2-5.8v-.4a8.6,8.6,0,0,0-2.9-6.5l-.3-.2a3,3,0,0,1-.8-.8,1.8,1.8,0,0,1-.3-1.1v-.6c-.2-1.6-.2-2.6.8-3.6a2.7,2.7,0,0,1,1.3-.5h.2c.2.1.3.3.5.7s.5,1.9,2.6,2.1h.2v-.2a5.3,5.3,0,0,0,1.3-1.3,4.5,4.5,0,0,1,.7-.7l.5-.4a2.4,2.4,0,0,1,1.3-.7,1.9,1.9,0,0,1,1.4.7l.3.4a2.1,2.1,0,0,0,1.7,1,3.5,3.5,0,0,0,1.7-.6,7.2,7.2,0,0,1,3.4-1.5,1,1,0,0,1,.8.3,2.1,2.1,0,0,1,.3,1.2h0a3.1,3.1,0,0,1-.4,1.5v.3l-.3.8-.9,1.8a3.6,3.6,0,0,0-.7,3.1,7.1,7.1,0,0,1,.1,1.4c-.2,1.9-1,5-2.2,5.1h-.3c-1.7,0-2.2-1.3-2.6-2.2l-.3-.7c-.4-.5-.7-1.1-1.3-1.1a1.2,1.2,0,0,0-.9.6c-.1.2-.2.3-.2,4.1v.3a5.2,5.2,0,0,1-1.4,3.6A2.7,2.7,0,0,1,117.1,119.3Z"/><path class="b4e233b0-527d-440d-9372-bc2ba60cf447" d="M120.5,98.1v1c.5,0,.6.1,1.1.6l.2.3a2.9,2.9,0,0,0,2.1,1.2,3.2,3.2,0,0,0,1.9-.7c1.9-1.2,2.8-1.4,3.2-1.4s.4.1.4.2.2.5.2.7v.2h0c.1.3-.2.9-.4,1.2v.3l-.3.8a11.9,11.9,0,0,1-.8,1.6,4.4,4.4,0,0,0-.8,3.6,5.7,5.7,0,0,1,.1,1.3c-.3,2.3-1.1,4.5-1.8,4.6h-.2c-1.3,0-1.7-.8-2.1-1.9s-.2-.5-.4-.7-.8-1.4-1.7-1.4a1.9,1.9,0,0,0-1.3.8c-.2.3-.3.4-.3,4.4v.3a4.3,4.3,0,0,1-1.2,3.2,2.8,2.8,0,0,1-1.2.4,1.6,1.6,0,0,1-1.2-.5c-.1-.3-.3-1.4-.1-5.5v-.5a8.8,8.8,0,0,0-3.1-6.9l-.3-.2-.7-.6a2,2,0,0,1-.2-.9V103c-.2-1.6-.2-2.3.7-3.1a1.2,1.2,0,0,1,.9-.4h0c.1,0,.1.2.2.4a3,3,0,0,0,3,2.4h.4l.3-.3a6.2,6.2,0,0,0,1.4-1.4l.6-.6.5-.4a2.8,2.8,0,0,1,1-.6v-1m0,0c-.7,0-1.3.6-2.1,1.2s-1,1.3-2,2c-2.8-.3-1.7-2.4-2.9-2.8h-.4a2.4,2.4,0,0,0-1.6.7c-1.4,1.2-1.1,2.6-1,4.5a2.3,2.3,0,0,0,.4,1.4,3.8,3.8,0,0,0,1.1,1.1,7.7,7.7,0,0,1,2.8,6.1c0,1-.3,5.6.3,6.5a2.2,2.2,0,0,0,2,1,3,3,0,0,0,1.8-.6,5.8,5.8,0,0,0,1.6-4c0-.2,0-3.9.1-4.1s.4-.4.5-.4.6.4.9.9.7,3.1,3.3,3.1h.3c1.9-.1,2.5-4.3,2.7-5.5s-.6-3.2.4-4.2a12,12,0,0,0,1.3-2.8,3.9,3.9,0,0,0,.6-2.1s.2-2-1.6-2a7,7,0,0,0-3.7,1.6,2.4,2.4,0,0,1-1.4.5c-.9,0-1.2-.9-1.6-1.2a2.6,2.6,0,0,0-1.8-.9Z"/></svg>