<svg id="a68d7a94-4704-4322-b393-b25100c85efb" data-name="Calque 1" xmlns="http://www.w3.org/2000/svg" viewBox="0 0 199.13 200.67"><defs><style>.a8550961-799c-452a-99f0-c57942b44974{fill:#e55b2b;}.f3791618-c94a-4943-bee4-24acc7441058{fill:none;stroke:#e55b2b;stroke-miterlimit:10;}</style></defs><title>feneant</title><path class="a8550961-799c-452a-99f0-c57942b44974" d="M101.76,11.85A17.09,17.09,0,0,1,118.4,24.27l5,16.43.32,1.06,1-.43,15.68-6.66A17,17,0,0,1,162,41.82a17.2,17.2,0,0,1,.42,17.26l-8,15.16-.52,1,1,.42,15.75,6.49a17.59,17.59,0,0,1-1.5,33l-16.27,5-1,.32.42,1,6.59,15.83a17.28,17.28,0,0,1-1.5,16.48,17.67,17.67,0,0,1-14.45,7.93,17.14,17.14,0,0,1-8.21-2.14l-15-8.07-1-.53-.42,1-6.43,15.91A17.3,17.3,0,0,1,79.2,166.4l-5-16.43-.33-1.06-1,.43L57.2,156a17,17,0,0,1-21.63-7.15,17.2,17.2,0,0,1-.41-17.27l8-15.15.51-1-1-.41L26.9,108.55a17.6,17.6,0,0,1,1.5-33l16.28-5,1-.32-.43-1L38.71,53.36a17.28,17.28,0,0,1,1.51-16.48A17.66,17.66,0,0,1,54.67,29a17.23,17.23,0,0,1,8.2,2.13l15,8.08,1,.53.42-1,6.43-15.9a17.07,17.07,0,0,1,16-10.9m0-1a18,18,0,0,0-17,11.53l-6.43,15.9-15-8.08A18.27,18.27,0,0,0,54.67,28,18.58,18.58,0,0,0,37.79,53.74l6.59,15.84-16.27,5c-16.53,5.09-17.58,28.3-1.59,34.89L42.28,116l-8,15.16c-6.87,13,3.18,27.31,16.08,27.31a18.44,18.44,0,0,0,7.24-1.51l15.69-6.66,5,16.43a18.3,18.3,0,0,0,34.56,1.6l6.43-15.9,15,8.08a18.27,18.27,0,0,0,8.68,2.25,18.59,18.59,0,0,0,16.88-25.79l-6.6-15.84,16.28-5C186,111,187.07,87.79,171.07,81.2l-15.75-6.49,8-15.16A18.36,18.36,0,0,0,140,33.75l-15.68,6.66-5-16.43a18.12,18.12,0,0,0-17.6-13.13Z"/><path class="a8550961-799c-452a-99f0-c57942b44974" d="M87.2,72.1c5.84,0,10.6,8.36,10.6,18.63S93,109.35,87.2,109.35,76.6,101,76.6,90.73,81.36,72.1,87.2,72.1m0-1c-6.4,0-11.6,8.79-11.6,19.63s5.2,19.62,11.6,19.62,11.6-8.78,11.6-19.62S93.61,71.1,87.2,71.1Z"/><path class="a8550961-799c-452a-99f0-c57942b44974" d="M119.75,71.88c5.84,0,10.6,8.35,10.6,18.62s-4.76,18.63-10.6,18.63-10.6-8.36-10.6-18.63,4.76-18.62,10.6-18.62m0-1c-6.4,0-11.6,8.78-11.6,19.62s5.2,19.63,11.6,19.63,11.6-8.79,11.6-19.63-5.19-19.62-11.6-19.62Z"/><ellipse class="a8550961-799c-452a-99f0-c57942b44974" cx="87.2" cy="93.79" rx="8.09" ry="8.17"/><ellipse class="a8550961-799c-452a-99f0-c57942b44974" cx="119.75" cy="93.79" rx="8.09" ry="8.17"/><line class="f3791618-c94a-4943-bee4-24acc7441058" x1="76.27" y1="85.62" x2="98.4" y2="85.62"/><line class="f3791618-c94a-4943-bee4-24acc7441058" x1="108.69" y1="85.62" x2="130.82" y2="85.62"/></svg>