<svg id="b5cda368-7785-479b-96ad-677520caf1ab" data-name="Calque 1" xmlns="http://www.w3.org/2000/svg" viewBox="0 0 199.13 200.67"><defs><style>.ff8760ec-1179-4411-8e6e-22c74856bf03{fill:none;stroke:#eef3df;stroke-miterlimit:10;}.bc151b91-ca49-4b76-bee2-3aa51c8bc503{fill:#eef3df;}</style></defs><title>gentil</title><path class="ff8760ec-1179-4411-8e6e-22c74856bf03" d="M99,93.14l-69.87-.07c0-38.3,31.56-69.8,69.87-69.8s69.86,31.54,69.86,69.87Z"/><path class="ff8760ec-1179-4411-8e6e-22c74856bf03" d="M99,93.14v63.64s.15,30.65-21,30.65"/><path class="bc151b91-ca49-4b76-bee2-3aa51c8bc503" d="M80.67,40.74c5.55,0,10.08,7.89,10.08,17.57S86.22,75.88,80.67,75.88,70.59,68,70.59,58.31s4.52-17.57,10.08-17.57m0-1c-6.12,0-11.08,8.32-11.08,18.57s5,18.57,11.08,18.57,11.08-8.31,11.08-18.57-5-18.57-11.08-18.57Z"/><path class="bc151b91-ca49-4b76-bee2-3aa51c8bc503" d="M111.76,40.53c5.56,0,10.08,7.88,10.08,17.57s-4.52,17.57-10.08,17.57-10.08-7.88-10.08-17.57,4.52-17.57,10.08-17.57m0-1c-6.12,0-11.08,8.31-11.08,18.57s5,18.57,11.08,18.57,11.08-8.31,11.08-18.57-5-18.57-11.08-18.57Z"/><circle class="bc151b91-ca49-4b76-bee2-3aa51c8bc503" cx="80.58" cy="63.62" r="7.73"/><circle class="bc151b91-ca49-4b76-bee2-3aa51c8bc503" cx="112.03" cy="63.49" r="7.73"/><path class="bc151b91-ca49-4b76-bee2-3aa51c8bc503" d="M93.66,85a10.4,10.4,0,0,0,11.18-5.42c.43-.86-.86-1.62-1.29-.75a8.91,8.91,0,0,1-9.5,4.72c-.94-.19-1.34,1.26-.39,1.45Z"/><path class="bc151b91-ca49-4b76-bee2-3aa51c8bc503" d="M156.16,62.31c5.25-2.46,9.79-6,10.76-12a46.17,46.17,0,0,0,.24-10,23.84,23.84,0,0,0-3.07-11.11c-1-1.65-3.6-.14-2.59,1.51a20.85,20.85,0,0,1,2.67,9.8,44.77,44.77,0,0,1-.15,9A10.54,10.54,0,0,1,161.63,55a21,21,0,0,1-7,4.68c-1.74.82-.22,3.41,1.52,2.59Z"/><path class="bc151b91-ca49-4b76-bee2-3aa51c8bc503" d="M163.45,29.38a47.16,47.16,0,0,1-14.95-4.76c-1.71-.89-3.23,1.7-1.51,2.59a49.15,49.15,0,0,0,15.66,5.06,1.55,1.55,0,0,0,1.85-1.05,1.51,1.51,0,0,0-1.05-1.84Z"/><path class="bc151b91-ca49-4b76-bee2-3aa51c8bc503" d="M165.16,30.27,153.39,13.79a1.54,1.54,0,0,0-2-.54,1.51,1.51,0,0,0-.54,2.05l11.77,16.49a1.54,1.54,0,0,0,2.05.54,1.51,1.51,0,0,0,.54-2.06Z"/><path class="bc151b91-ca49-4b76-bee2-3aa51c8bc503" d="M164.88,30.94q-.4-9.28-.21-18.57c0-1.93-3-1.93-3,0q-.19,9.29.21,18.57c.08,1.92,3.08,1.93,3,0Z"/><path class="bc151b91-ca49-4b76-bee2-3aa51c8bc503" d="M165.34,32l13.75-10.74a1.52,1.52,0,0,0,0-2.13,1.54,1.54,0,0,0-2.12,0L163.22,29.84a1.5,1.5,0,0,0,0,2.12,1.52,1.52,0,0,0,2.12,0Z"/></svg>