<svg id="a23993b9-b595-47ff-a8a4-73a31a39f5da" data-name="Calque 1" xmlns="http://www.w3.org/2000/svg" viewBox="0 0 199.13 200.67"><defs><style>.b6bb4120-2c49-4570-a09f-bbab71c395f9{fill:none;stroke:#94ccb5;stroke-miterlimit:10;}.a77ccfed-862b-474c-805e-9141aec13a3c{fill:#94ccb5;}</style></defs><title>honteux</title><path class="b6bb4120-2c49-4570-a09f-bbab71c395f9" d="M103.24,44.19S-4.18,57.83,52.4,135.51s63.06,42.35,70.58,29.71c12.94-21.77,7.87-8.11,30.22-45.15C177.92,79.11,140.5,40.54,103.24,44.19Z"/><path class="a77ccfed-862b-474c-805e-9141aec13a3c" d="M87.86,91.87C93.62,91.87,98.3,100,98.3,110s-4.68,18.17-10.44,18.17S77.43,120.06,77.43,110s4.68-18.17,10.43-18.17m0-1c-6.31,0-11.43,8.58-11.43,19.17s5.12,19.17,11.43,19.17S99.3,120.63,99.3,110,94.18,90.87,87.86,90.87Z"/><path class="a77ccfed-862b-474c-805e-9141aec13a3c" d="M120,91.65c5.75,0,10.43,8.15,10.43,18.17S125.71,128,120,128s-10.44-8.15-10.44-18.17S114.2,91.65,120,91.65m0-1c-6.32,0-11.44,8.58-11.44,19.17S113.64,129,120,129s11.43-8.58,11.43-19.17S126.27,90.65,120,90.65Z"/><circle class="a77ccfed-862b-474c-805e-9141aec13a3c" cx="88.25" cy="120.91" r="7.98"/><circle class="a77ccfed-862b-474c-805e-9141aec13a3c" cx="120.72" cy="120.09" r="7.98"/><path class="a77ccfed-862b-474c-805e-9141aec13a3c" d="M76.38,125A43.09,43.09,0,0,1,60.68,127c-.83-.05-1,1.34-.2,1.47l19.85,3.15v-1.45l-16,2.59c-.67.11-.68,1.06-.18,1.37a18.7,18.7,0,0,0,13.06,2.5c.95-.16.54-1.61-.4-1.45a17.14,17.14,0,0,1-11.9-2.34l-.18,1.37,16-2.59a.76.76,0,0,0,0-1.45l-19.84-3.15-.2,1.48a44.41,44.41,0,0,0,16.1-2.14c.91-.3.52-1.75-.4-1.45Z"/><path class="a77ccfed-862b-474c-805e-9141aec13a3c" d="M97.26,142.79H110.5a1.5,1.5,0,0,0,0-3H97.26a1.5,1.5,0,0,0,0,3Z"/><path class="a77ccfed-862b-474c-805e-9141aec13a3c" d="M132.34,123.15l15.25,0-.2-1.48A135.55,135.55,0,0,0,125.74,127a.75.75,0,0,0,.4,1.45,85.48,85.48,0,0,1,18.71-.65l-.38-1.4a29.58,29.58,0,0,1-13.66,5.77c-.9.13-.56,1.39.2,1.47,2,.21,3.91.67,5.89.83,1.7.14,3.69.18,5-1,.73-.63-.33-1.69-1.06-1.06-1.17,1-3.43.65-4.83.49-1.69-.2-3.35-.57-5-.75l.2,1.47a30.29,30.29,0,0,0,14-5.91.76.76,0,0,0-.37-1.4,87.87,87.87,0,0,0-19.11.7l.4,1.45a134.49,134.49,0,0,1,21.65-5.34c.85-.14.63-1.47-.2-1.47l-15.25,0a.75.75,0,0,0,0,1.5Z"/><path class="b6bb4120-2c49-4570-a09f-bbab71c395f9" d="M43.43,32.3S67.1,24.75,82.89,47.53C82.89,47.53,62.45,61.14,43.43,32.3Z"/><path class="b6bb4120-2c49-4570-a09f-bbab71c395f9" d="M82.44,47.8s11.52,22-8.2,41.49C74.24,89.29,57.31,71.5,82.44,47.8Z"/><path class="b6bb4120-2c49-4570-a09f-bbab71c395f9" d="M82.74,47.81s24.8-1.45,34.46,24.53C117.2,72.34,94,80.46,82.74,47.81Z"/><path class="b6bb4120-2c49-4570-a09f-bbab71c395f9" d="M107.22,13.14S83.36,20.08,83,47.8C83,47.8,107.53,47.68,107.22,13.14Z"/><path class="a77ccfed-862b-474c-805e-9141aec13a3c" d="M57.46,107.81a1.5,1.5,0,0,0,0-3,1.5,1.5,0,0,0,0,3Z"/><path class="a77ccfed-862b-474c-805e-9141aec13a3c" d="M66.6,121.93a1.5,1.5,0,0,0,0-3,1.5,1.5,0,0,0,0,3Z"/><path class="a77ccfed-862b-474c-805e-9141aec13a3c" d="M51.64,129.41a1.5,1.5,0,0,0,0-3,1.5,1.5,0,0,0,0,3Z"/><path class="a77ccfed-862b-474c-805e-9141aec13a3c" d="M143,97.84a1.5,1.5,0,0,0,0-3,1.5,1.5,0,0,0,0,3Z"/><path class="a77ccfed-862b-474c-805e-9141aec13a3c" d="M135.56,112.79a1.5,1.5,0,0,0,0-3,1.5,1.5,0,0,0,0,3Z"/><path class="a77ccfed-862b-474c-805e-9141aec13a3c" d="M149.69,121.93a1.5,1.5,0,0,0,0-3,1.5,1.5,0,0,0,0,3Z"/></svg>