<svg id="ade31f03-577c-4b6b-99e3-2e2963e776d9" data-name="Calque 1" xmlns="http://www.w3.org/2000/svg" viewBox="0 0 199.13 200.67"><defs><style>.abf1dd44-997b-4fb6-b853-785812ae630d{fill:#94ccb5;}</style></defs><title>indecis</title><path class="abf1dd44-997b-4fb6-b853-785812ae630d" d="M101.51,55.16a14.47,14.47,0,0,1,14.1,10.42l4.24,13.92.32,1.06,1-.43,13.42-5.64a15,15,0,0,1,5.81-1.2A14.81,14.81,0,0,1,153,80.57,14.31,14.31,0,0,1,153.3,95l-6.85,12.85-.52,1,1,.41,13.47,5.5a14.71,14.71,0,0,1-1.27,27.69l-13.92,4.25-1.06.32.43,1,5.64,13.42A14.38,14.38,0,0,1,149,175.15a15,15,0,0,1-12.3,6.73,14.66,14.66,0,0,1-7-1.79l-12.84-6.84-1-.52-.42,1L110,187.23A14.71,14.71,0,0,1,82.34,186L78.1,172,77.77,171l-1,.43-13.42,5.64A14.54,14.54,0,0,1,45,171a14.34,14.34,0,0,1-.3-14.4l6.85-12.85.52-1-1-.42-13.48-5.5a14.71,14.71,0,0,1,1.27-27.69l13.93-4.25,1.06-.32-.43-1L47.7,90.13a14.38,14.38,0,0,1,1.22-13.74,15,15,0,0,1,12.29-6.73,14.66,14.66,0,0,1,7,1.79L81,78.29l1,.52.42-1,5.5-13.48a14.45,14.45,0,0,1,13.59-9.15m0-1A15.42,15.42,0,0,0,87,63.93l-5.5,13.48L68.64,70.57a15.66,15.66,0,0,0-7.43-1.91c-10.4,0-19.08,10.81-14.44,21.86l5.65,13.42-13.93,4.24c-14.14,4.31-15,24-1.35,29.57l13.47,5.5L43.77,156.1c-5.88,11,2.71,23.15,13.75,23.15a16,16,0,0,0,6.2-1.28l13.42-5.64,4.24,13.92A15.71,15.71,0,0,0,111,187.61l5.51-13.48L129.3,181a15.81,15.81,0,0,0,7.43,1.9c10.4,0,19.08-10.81,14.44-21.86l-5.64-13.42,13.93-4.24c14.14-4.31,15-24,1.35-29.57l-13.48-5.5,6.85-12.85c5.88-11-2.72-23.15-13.76-23.15a15.93,15.93,0,0,0-6.19,1.28l-13.42,5.64-4.25-13.92a15.46,15.46,0,0,0-15-11.13Z"/><path class="abf1dd44-997b-4fb6-b853-785812ae630d" d="M89.05,106.23c4.84,0,8.92,7.16,8.92,15.64s-4.08,15.63-8.92,15.63-8.92-7.16-8.92-15.63,4.08-15.64,8.92-15.64m0-1c-5.48,0-9.92,7.45-9.92,16.64s4.44,16.63,9.92,16.63S99,131.05,99,121.87s-4.44-16.64-9.92-16.64Z"/><path class="abf1dd44-997b-4fb6-b853-785812ae630d" d="M116.9,106c4.84,0,8.92,7.16,8.92,15.63s-4.08,15.64-8.92,15.64S108,130.15,108,121.67,112.07,106,116.9,106m0-1c-5.48,0-9.92,7.45-9.92,16.63s4.44,16.64,9.92,16.64,9.92-7.45,9.92-16.64S122.38,105,116.9,105Z"/><circle class="abf1dd44-997b-4fb6-b853-785812ae630d" cx="88.81" cy="116.05" r="6.92"/><circle class="abf1dd44-997b-4fb6-b853-785812ae630d" cx="116.98" cy="115.93" r="6.92"/><path class="abf1dd44-997b-4fb6-b853-785812ae630d" d="M105,13.56c-.8-2-1.79-4.27-1.28-6.45.4-1.68,2-3.51,3.89-2.93,3.23,1,2.86,6,2.29,8.47-1.46,6.48-6,12-6.18,18.76,0,1,1.47,1,1.5,0,.18-6.7,4.79-12.14,6.17-18.54.57-2.66.71-5.76-.86-8.13a4.2,4.2,0,0,0-6.26-1.19C101,6.2,102.25,10.61,103.6,14c.36.88,1.81.5,1.44-.4Z"/><path class="abf1dd44-997b-4fb6-b853-785812ae630d" d="M104.37,35.25s0-.06,0-.09l0,.2a1,1,0,0,1,0-.25l0,.2a2.5,2.5,0,0,1,.07-.26l-.07.18a1.82,1.82,0,0,1,.15-.27l-.12.16a1.52,1.52,0,0,1,.22-.22l-.15.12a1,1,0,0,1,.26-.16l-.18.08.23-.07-.2,0h.22l-.53-.21a1.63,1.63,0,0,1,.17.2l-.12-.15a2.7,2.7,0,0,1,.35.59l-.07-.18a2,2,0,0,1,.15.54l0-.2a2.41,2.41,0,0,1,0,.38l0-.2a1.11,1.11,0,0,1-.08.3l.08-.18a1.28,1.28,0,0,1-.15.25l.12-.16a.34.34,0,0,1-.12.12l.16-.11-.15.08.18-.07-.17,0,.2,0h-.24l.2,0a1.47,1.47,0,0,1-.28-.08l.18.07a1.23,1.23,0,0,1-.25-.14l.16.12a1,1,0,0,1-.18-.18l.11.15a.53.53,0,0,1-.08-.15l.07.18,0-.12,0,.2a.21.21,0,0,1,0-.11l0,.2,0-.1-.08.18.06-.11-.11.16a.18.18,0,0,1,0-.07.75.75,0,0,0,0-1.06.76.76,0,0,0-1.06,0A1.21,1.21,0,0,0,103,36.2a1.32,1.32,0,0,0,.46.74,1.75,1.75,0,0,0,1.92.29,1.6,1.6,0,0,0,.73-1,2.15,2.15,0,0,0,0-1.18,2.78,2.78,0,0,0-.45-1,3.05,3.05,0,0,0-.38-.49,1.09,1.09,0,0,0-1-.17,1.9,1.9,0,0,0-1.12.82,1.75,1.75,0,0,0-.24,1.39.75.75,0,0,0,1.44-.4Z"/><path class="abf1dd44-997b-4fb6-b853-785812ae630d" d="M120.5,35a3.21,3.21,0,0,1,5.21-1.78c1.67,1.5,1.81,4.11,1.29,6.14-.67,2.59-2.11,4.91-2.79,7.49a16.66,16.66,0,0,0-.08,8c.22.94,1.66.54,1.45-.4a16.64,16.64,0,0,1,1.32-10.57c1.13-2.63,2.3-5.33,1.7-8.25-.45-2.17-1.92-4.27-4.23-4.64a4.83,4.83,0,0,0-5.32,3.64c-.22.94,1.23,1.34,1.45.4Z"/><path class="abf1dd44-997b-4fb6-b853-785812ae630d" d="M125.86,60.55c0,.21,0-.12,0,0a.94.94,0,0,1,0,.16s0,.05,0,.08,0,.05,0-.06,0,.1-.08.14l-.09.15c-.08.11.11-.13,0,0a2.61,2.61,0,0,0-.24.23l0,0-.07,0-.15.08c-.06,0-.14,0,0,0l-.16.05-.16,0c-.13,0,.2,0,0,0h-.16c-.21,0,.12,0,0,0l.44.34c0,.06.06.16,0,0l0-.1a1.21,1.21,0,0,1,0-.18,1.29,1.29,0,0,0,0-.19c0,.05,0,.18,0,.05V61.3a2.81,2.81,0,0,1,0-.41c0-.13,0,.14,0,0s0-.06,0-.08a1.6,1.6,0,0,1,0-.21,1.39,1.39,0,0,1,.06-.19l0-.08c0-.14-.06.12,0,0a2.43,2.43,0,0,1,.2-.35l0-.07c.09-.13-.08.1,0,0l.12-.14.16-.15.06-.06c.12-.1-.14.11,0,0l-1.13-.65.1,1.5a.75.75,0,0,0,1.5,0l-.1-1.5a.78.78,0,0,0-.37-.65.76.76,0,0,0-.76,0,3.37,3.37,0,0,0-1.43,2.92,3.29,3.29,0,0,0,.15.82.92.92,0,0,0,1,.78,2.51,2.51,0,0,0,1.67-.63,2.45,2.45,0,0,0,.85-1.74.75.75,0,0,0-1.5,0Z"/><path class="abf1dd44-997b-4fb6-b853-785812ae630d" d="M74.35,31.74A3.21,3.21,0,0,1,79.56,30c1.67,1.5,1.81,4.12,1.29,6.15-.67,2.59-2.11,4.9-2.79,7.49a16.66,16.66,0,0,0-.08,8c.22.94,1.66.54,1.45-.4a16.63,16.63,0,0,1,1.32-10.57c1.13-2.64,2.3-5.33,1.7-8.25-.45-2.17-1.92-4.27-4.24-4.64a4.82,4.82,0,0,0-5.31,3.64c-.22.94,1.23,1.34,1.45.4Z"/><path class="abf1dd44-997b-4fb6-b853-785812ae630d" d="M79.71,57.29c0,.21,0-.12,0,0a1,1,0,0,1,0,.17.19.19,0,0,0,0,.08c0,.07,0,.05,0-.07,0,.05,0,.1-.07.15l-.09.14c-.08.12.11-.12,0,0a2.72,2.72,0,0,0-.24.24l0,0-.07,0-.15.09c-.07,0-.15,0,0,0l-.16.06-.16,0c-.13,0,.2,0,0,0h-.17c-.2,0,.13,0,0,0l.45.34c0,.05.06.15,0,0l0-.1a1.05,1.05,0,0,1,0-.19c0-.06,0-.12,0-.18s0,.17,0,.05V58a2.67,2.67,0,0,1,0-.4c0-.14,0,.14,0,0s0-.06,0-.09a1.6,1.6,0,0,1,0-.21.64.64,0,0,1,.06-.18s0-.05,0-.08-.06.12,0,0a3.9,3.9,0,0,1,.19-.35l.05-.07c.09-.13-.08.1,0,0l.12-.15.15-.14.07-.06c.12-.1-.14.1,0,0l-1.12-.64.1,1.5a.75.75,0,0,0,1.5,0l-.1-1.5a.79.79,0,0,0-.38-.65.72.72,0,0,0-.75,0,3.36,3.36,0,0,0-1.43,2.91,3.79,3.79,0,0,0,.14.83,1.23,1.23,0,0,0,.35.59,1.24,1.24,0,0,0,.71.19A2.57,2.57,0,0,0,80.36,59a2.49,2.49,0,0,0,.85-1.75.77.77,0,0,0-.75-.75.76.76,0,0,0-.75.75Z"/><path class="abf1dd44-997b-4fb6-b853-785812ae630d" d="M121.61,102.84a9.07,9.07,0,0,1-6.75-1.25,5.29,5.29,0,0,1-2.18-5.3c.23-.94-1.21-1.34-1.44-.4a6.77,6.77,0,0,0,2.63,6.82c2.3,1.77,5.36,2,8.14,1.58a.76.76,0,0,0,.52-.92.77.77,0,0,0-.92-.53Z"/><path class="abf1dd44-997b-4fb6-b853-785812ae630d" d="M84.75,104.32a10.53,10.53,0,0,0,8.14-1.58,6.77,6.77,0,0,0,2.63-6.82c-.23-.94-1.68-.54-1.45.4a5.27,5.27,0,0,1-2.17,5.3,9,9,0,0,1-6.75,1.25.78.78,0,0,0-.92.53.74.74,0,0,0,.52.92Z"/></svg>