<svg id="bd4c3914-1c34-456d-8643-7a9f7417dec2" data-name="Calque 1" xmlns="http://www.w3.org/2000/svg" viewBox="0 0 199.13 200.67"><defs><style>.b8c8bccf-2912-4950-a533-7068cba5c05c{fill:#eef3df;}</style></defs><title>joyeux</title><path class="b8c8bccf-2912-4950-a533-7068cba5c05c" d="M106.58,26.22a16.76,16.76,0,0,1,16.33,12.06l4.87,16,.32,1.06,1-.43,15.4-6.47A17.41,17.41,0,0,1,151.25,47a17.16,17.16,0,0,1,14.55,8.43,16.56,16.56,0,0,1,.35,16.67l-7.86,14.74-.52,1,1,.42,15.47,6.31a17,17,0,0,1-1.47,32.06l-16,4.87-1.06.32.43,1,6.47,15.4a16.61,16.61,0,0,1-1.42,15.91A17.34,17.34,0,0,1,147,172a17,17,0,0,1-8.06-2.07L124.21,162l-1-.52-.42,1L116.5,178a17,17,0,0,1-32.06-1.47l-4.87-16-.32-1.06-1,.43-15.4,6.47a16.79,16.79,0,0,1-21.28-7,16.54,16.54,0,0,1-.35-16.66l7.85-14.75.53-1-1-.42-15.47-6.31a17,17,0,0,1,1.47-32l16-4.88L51.59,83l-.43-1-6.47-15.4a16.62,16.62,0,0,1,1.42-15.91,17.34,17.34,0,0,1,14.23-7.79,17.11,17.11,0,0,1,8.06,2.07l14.74,7.86,1,.52.42-1,6.31-15.47a16.74,16.74,0,0,1,15.73-10.59m0-1A17.7,17.7,0,0,0,89.92,36.44L83.61,51.9,68.87,44.05a18.08,18.08,0,0,0-8.53-2.19C48.4,41.86,38.44,54.27,43.77,67l6.47,15.4-16,4.87C18,92.17,17,114.75,32.7,121.16l15.47,6.31-7.85,14.75c-6.75,12.66,3.11,26.57,15.78,26.57a18.1,18.1,0,0,0,7.11-1.48l15.41-6.47,4.87,16a18,18,0,0,0,33.94,1.56l6.31-15.47,14.74,7.85A18,18,0,0,0,147,173c11.94,0,21.9-12.41,16.57-25.08l-6.47-15.41,16-4.87c16.23-4.94,17.26-27.52,1.56-33.93l-15.47-6.32L167,72.6C173.78,59.93,163.92,46,151.25,46a18.26,18.26,0,0,0-7.11,1.47L128.73,54l-4.87-16a17.76,17.76,0,0,0-17.28-12.77Z"/><path class="b8c8bccf-2912-4950-a533-7068cba5c05c" d="M81.82,109.32a11.28,11.28,0,0,1,8-3.54,10,10,0,0,1,7.27,4,1.5,1.5,0,0,0,2.12-2.12,12.79,12.79,0,0,0-9.39-4.91c-3.85-.11-7.39,1.81-10.1,4.41-1.4,1.34.73,3.46,2.12,2.13Z"/><path class="b8c8bccf-2912-4950-a533-7068cba5c05c" d="M109.52,110.21a11.23,11.23,0,0,1,8-3.53,10,10,0,0,1,7.27,4,1.51,1.51,0,0,0,2.12,0,1.53,1.53,0,0,0,0-2.12,12.75,12.75,0,0,0-9.39-4.9c-3.86-.11-7.39,1.8-10.1,4.41-1.4,1.34.72,3.46,2.12,2.12Z"/><path class="b8c8bccf-2912-4950-a533-7068cba5c05c" d="M90.25,119.73a.8.8,0,0,1,.73-.49c3-.31,14.29-2,24.94-1.71,4,.12-3.27,15.59-10.2,16.16C101.2,134.06,88.69,124.83,90.25,119.73Z"/><path class="b8c8bccf-2912-4950-a533-7068cba5c05c" d="M178.3,37.39a24.28,24.28,0,0,1-7.73,14.13c2.29-.23,4,2,5.13,4a63.74,63.74,0,0,1,5.93,15c.52-6.53,1.45-13.86,6.62-17.88a53.21,53.21,0,0,1-9.95-15.23"/><path class="b8c8bccf-2912-4950-a533-7068cba5c05c" d="M176.85,37a22.3,22.3,0,0,1-7.34,13.47A1.51,1.51,0,0,0,170.57,53c1.46-.07,2.45,1.08,3.2,2.21A37.93,37.93,0,0,1,176.29,60a62.68,62.68,0,0,1,3.89,10.91c.45,1.71,2.82,1.22,2.95-.4.48-6,1.19-12.82,6.18-16.82a1.52,1.52,0,0,0,0-2.12,53.2,53.2,0,0,1-9.72-14.93c-.77-1.76-3.35-.24-2.59,1.52a55.46,55.46,0,0,0,10.19,15.53V51.56c-5.62,4.51-6.52,12.24-7.06,18.94l3-.4a67.09,67.09,0,0,0-4.8-12.87c-1.53-3.09-3.64-7.41-7.71-7.21l1.06,2.56a24.79,24.79,0,0,0,8.11-14.79,1.56,1.56,0,0,0-1.05-1.85A1.51,1.51,0,0,0,176.85,37Z"/><path class="b8c8bccf-2912-4950-a533-7068cba5c05c" d="M63.35,47.69c.17,7.05-4.68,17.56-9.64,22.57h0c.58,0,1.13,1.56,1.43,2,3.8,6.36,7.1,11,9.71,17.9C63.5,82.76,68.66,75.85,73.51,70c-2.62,0-4.35-2.67-5.42-5.06a58.55,58.55,0,0,1-4.74-17.27"/><path class="b8c8bccf-2912-4950-a533-7068cba5c05c" d="M61.85,47.69a28.08,28.08,0,0,1-2.77,11.47,34.22,34.22,0,0,1-6.43,10l1.06-.44h-.43a1.5,1.5,0,0,0,0,3c.25,0,.16-.06-.26-.26a4.62,4.62,0,0,1,.28.48c.13.24.23.49.36.73.4.79.89,1.54,1.35,2.29,1,1.69,2.08,3.36,3.1,5A67.65,67.65,0,0,1,63.4,90.61a1.5,1.5,0,0,0,2.89-.79c-1.18-7.15,4-13.61,8.28-18.73a1.53,1.53,0,0,0-1.06-2.57c-1.58-.08-2.61-1.5-3.33-2.75a32.1,32.1,0,0,1-2.36-5.49,57.82,57.82,0,0,1-3-12.59c-.23-1.89-3.23-1.91-3,0a61.5,61.5,0,0,0,3.72,15.12c1.44,3.67,3.35,8.47,7.94,8.71L72.45,69C67.37,75.07,62,82.2,63.4,90.61l2.89-.79a74.73,74.73,0,0,0-6.23-12.34c-1.2-2-2.52-3.9-3.63-5.92-.79-1.46-1.28-2.79-3.15-2.8v3c2,0,3.49-2.67,4.55-4.19a42,42,0,0,0,3.6-6.37c1.93-4.2,3.48-8.83,3.42-13.51,0-1.92-3-1.93-3,0Z"/><path class="b8c8bccf-2912-4950-a533-7068cba5c05c" d="M141,135.62c.1,3.81-2.52,9.48-5.2,12.19h0c.31,0,.61.84.77,1.11,2.05,3.44,3.84,5.92,5.24,9.67-.73-4,2.06-7.76,4.68-10.91-1.41,0-2.35-1.44-2.93-2.73a32.09,32.09,0,0,1-2.56-9.33"/><path class="b8c8bccf-2912-4950-a533-7068cba5c05c" d="M139.53,135.62a17.19,17.19,0,0,1-4.76,11.13l1.06-.44h-.21a1.52,1.52,0,0,0-1.5,1.5h0a1.52,1.52,0,0,0,1.5,1.5c-.62-.44-.79-.46-.52,0l.2.41c.27.48.58.95.87,1.42.51.83,1,1.65,1.52,2.48A35.51,35.51,0,0,1,140.4,159a1.5,1.5,0,0,0,2.89-.8c-.55-3.58,2.16-6.88,4.29-9.44a1.53,1.53,0,0,0-1.06-2.57c-1.37-.11-2.15-3.2-2.49-4.18a31,31,0,0,1-1.5-6.38,1.5,1.5,0,0,0-3,0,34.44,34.44,0,0,0,2.2,8.76c.92,2.25,2.09,4.58,4.79,4.8l-1.06-2.56c-3,3.56-5.81,7.51-5.06,12.37l2.89-.8a42.47,42.47,0,0,0-3.5-6.93c-.65-1.06-1.35-2.09-1.94-3.18s-1-1.78-2.23-1.77l1.5,1.5h0l-1.5,1.5c1.33,0,2.15-1.38,2.86-2.36a23.14,23.14,0,0,0,2.07-3.58,18.35,18.35,0,0,0,2-7.75,1.5,1.5,0,0,0-3,0Z"/></svg>