<svg id="b4432a6c-54b7-430e-86d7-85e83e226188" data-name="Calque 1" xmlns="http://www.w3.org/2000/svg" viewBox="0 0 199.13 200.67"><defs><style>.b4d8ee82-4f03-49ea-9eaa-7d1d47317733{fill:#f7e975;}</style></defs><title>ko</title><path class="b4d8ee82-4f03-49ea-9eaa-7d1d47317733" d="M87.68,16.81a17.54,17.54,0,0,1,15.38,8.86l9,15.17.56.95.89-.66,14.18-10.47a17.86,17.86,0,0,1,10.63-3.6,18.44,18.44,0,0,1,14.44,7.17,17.5,17.5,0,0,1,3.09,15.4L151.44,66.7l-.28,1.07,1.1.17,17.42,2.61a18,18,0,0,1,6.5,33.33l-15.17,9-.95.56.66.89,10.47,14.18a17.63,17.63,0,0,1,1.64,18.74,17.86,17.86,0,0,1-15.91,10,18.61,18.61,0,0,1-4.7-.61l-17.07-4.38-1.07-.27-.16,1.09L131.3,170.5c-1.59,10.55-10.42,15.36-18,15.36A17.54,17.54,0,0,1,98,177l-9-15.17-.56-1-.89.66L73.37,172a17.83,17.83,0,0,1-10.63,3.6,18.46,18.46,0,0,1-14.44-7.16A17.5,17.5,0,0,1,45.22,153L49.6,136l.27-1.07-1.09-.17-17.43-2.61a18,18,0,0,1-6.5-33.33l15.17-9,.95-.56-.66-.89L29.84,74.19A17.63,17.63,0,0,1,28.2,55.45a17.86,17.86,0,0,1,15.92-10,19,19,0,0,1,4.69.6l17.07,4.38,1.07.28.17-1.1,2.61-17.42c1.59-10.55,10.42-15.36,18-15.36m0-1A18.85,18.85,0,0,0,68.75,32L66.13,49.45,49.06,45.07a19.6,19.6,0,0,0-4.94-.64C29.35,44.43,19.44,61.8,29,74.79L39.51,89l-15.17,9C8.94,107,13.5,130.45,31.2,133.11l17.43,2.61-4.38,17.07c-3.35,13.05,7,23.82,18.49,23.82A18.74,18.74,0,0,0,74,172.81l14.17-10.47,9,15.17a18.59,18.59,0,0,0,16.24,9.35,18.87,18.87,0,0,0,18.94-16.21l2.61-17.43L152,157.6a19.67,19.67,0,0,0,4.95.64c14.76,0,24.67-17.37,15.07-30.36l-10.47-14.17,15.17-9c15.4-9.12,10.84-32.52-6.86-35.18L152.4,67l4.38-17.07c3.35-13.05-7-23.82-18.49-23.82a18.76,18.76,0,0,0-11.23,3.8L112.89,40.33l-9-15.17a18.59,18.59,0,0,0-16.24-9.35Z"/><path class="b4d8ee82-4f03-49ea-9eaa-7d1d47317733" d="M88.76,118.61c1.06-1.67,3.76-2.23,5.5-2.91,2.06-.8,4.14-1.57,6.22-2.31,4.17-1.48,8.39-2.82,12.64-4a.75.75,0,0,0-.4-1.44q-7.06,2-14,4.52Q95.4,113.64,92.1,115c-1.72.68-3.6,1.26-4.64,2.91-.51.81.78,1.57,1.3.75Z"/><path class="b4d8ee82-4f03-49ea-9eaa-7d1d47317733" d="M94.31,100.76c1.39,1.38,2,3.42,2.79,5.18.92,2.14,1.84,4.28,2.74,6.43,1.72,4.12,3.38,8.28,5,12.45.35.89,1.8.5,1.45-.4q-2.59-6.7-5.37-13.33-1.34-3.18-2.71-6.35c-.77-1.76-1.43-3.65-2.83-5a.75.75,0,0,0-1.06,1.06Z"/><path class="b4d8ee82-4f03-49ea-9eaa-7d1d47317733" d="M99.9,88.66a128.25,128.25,0,0,1,26.55-9c.94-.21.54-1.66-.4-1.45a131.22,131.22,0,0,0-26.91,9.16c-.87.41-.11,1.7.76,1.3Z"/><path class="b4d8ee82-4f03-49ea-9eaa-7d1d47317733" d="M106.25,70.24l11.81,26c.4.88,1.69.12,1.29-.75l-11.8-26c-.4-.88-1.69-.12-1.3.75Z"/><path class="b4d8ee82-4f03-49ea-9eaa-7d1d47317733" d="M125,120.84a31.35,31.35,0,0,1,2.78-16.45c.4-.87-.89-1.63-1.3-.76a32.81,32.81,0,0,0-3,17.21c.1,1,1.6,1,1.5,0Z"/></svg>