<svg id="e705b9ca-b94d-4189-a8da-6b8018cf81c5" data-name="Calque 1" xmlns="http://www.w3.org/2000/svg" viewBox="0 0 199.13 200.67"><defs><style>.f145de54-db2d-45f6-9367-0b3e18fcc2f9{fill:none;stroke:#e55b2b;stroke-miterlimit:10;}.ab223ee8-be3e-4a3a-b77e-98d3643a567e{fill:#e55b2b;}</style></defs><title>leger</title><path class="f145de54-db2d-45f6-9367-0b3e18fcc2f9" d="M96.72,106.43S51.47,154.22,100.23,194"/><path class="ab223ee8-be3e-4a3a-b77e-98d3643a567e" d="M104.81,7.68a9.86,9.86,0,0,1,9.62,7.11l3,9.79.32,1.06,1-.43,9.44-4a9.89,9.89,0,0,1,12.55,4.15,9.78,9.78,0,0,1,.2,9.83l-4.81,9-.52,1,1,.42,9.48,3.86a10,10,0,0,1-.87,18.91l-9.79,3-1.06.33.43,1,4,9.43a9.84,9.84,0,0,1-.83,9.38,10.26,10.26,0,0,1-8.4,4.6A10,10,0,0,1,124.82,95l-9-4.82-1-.52-.42,1-3.87,9.47a10,10,0,0,1-18.9-.86l-3-9.79-.32-1.06-1,.43-9.44,4A9.89,9.89,0,0,1,65.3,88.64a9.78,9.78,0,0,1-.2-9.83l4.81-9,.52-1-1-.42-9.48-3.86a10,10,0,0,1,.87-18.91l9.79-3,1.06-.33-.43-1-4-9.43a9.81,9.81,0,0,1,.83-9.38,10.26,10.26,0,0,1,8.4-4.6,10,10,0,0,1,4.75,1.22l9,4.82,1,.52.42-1,3.87-9.47a9.86,9.86,0,0,1,9.28-6.25m0-1A10.83,10.83,0,0,0,94.6,13.55L90.73,23l-9-4.81a11,11,0,0,0-15.37,14l4,9.43-9.78,3a11,11,0,0,0-1,20.79L69,69.31l-4.81,9a11,11,0,0,0,14,15.38l9.44-4,3,9.79a11,11,0,0,0,20.79.95L115.31,91l9,4.81a11,11,0,0,0,5.22,1.34A11.08,11.08,0,0,0,139.72,81.8l-4-9.43,9.79-3a11,11,0,0,0,1-20.79L137,44.73l4.81-9a11.08,11.08,0,0,0-9.67-16.28,11.34,11.34,0,0,0-4.35.9l-9.44,4-3-9.79a10.88,10.88,0,0,0-10.58-7.82Z"/><path class="ab223ee8-be3e-4a3a-b77e-98d3643a567e" d="M96.05,43.58c3.24,0,6,4.9,6,10.7S99.29,65,96.05,65s-6-4.9-6-10.69,2.74-10.7,6-10.7m0-1c-3.85,0-7,5.24-7,11.7S92.2,66,96.05,66s7-5.24,7-11.69-3.12-11.7-7-11.7Z"/><path class="ab223ee8-be3e-4a3a-b77e-98d3643a567e" d="M115.63,43.45c3.24,0,6,4.89,6,10.69s-2.73,10.69-6,10.69-6-4.89-6-10.69,2.74-10.69,6-10.69m0-1c-3.85,0-7,5.23-7,11.69s3.13,11.69,7,11.69,7-5.23,7-11.69-3.12-11.69-7-11.69Z"/><circle class="ab223ee8-be3e-4a3a-b77e-98d3643a567e" cx="96.05" cy="60.97" r="4.87"/><circle class="ab223ee8-be3e-4a3a-b77e-98d3643a567e" cx="115.63" cy="60.97" r="4.87"/><path class="ab223ee8-be3e-4a3a-b77e-98d3643a567e" d="M105.2,75.54A6.85,6.85,0,0,0,112.56,72a.78.78,0,0,0-.27-1,.77.77,0,0,0-1,.27,5.33,5.33,0,0,1-5.66,2.85.75.75,0,1,0-.4,1.45Z"/></svg>