<svg id="f21d3273-ae54-4721-a8c3-460e46b8083c" data-name="Calque 1" xmlns="http://www.w3.org/2000/svg" viewBox="0 0 199.13 200.67"><defs><style>.bb021a69-9ae0-42cd-8fad-defa2bd25246{fill:#967b2b;}</style></defs><title>minuscule</title><path class="bb021a69-9ae0-42cd-8fad-defa2bd25246" d="M102.16,84.09a2.62,2.62,0,0,1,2.54,2l1,3.36.32,1.08,1-.45,3.12-1.36a2.64,2.64,0,0,1,1-.22,2.67,2.67,0,0,1,2.23,1.31,2.83,2.83,0,0,1,.08,2.8l-1.59,3.1-.5,1,1,.42,3.14,1.32a2.83,2.83,0,0,1-.23,5.25l-3.24,1-1,.32.41,1,1.31,3.23a2.81,2.81,0,0,1-.25,2.67,2.66,2.66,0,0,1-2.18,1.22,2.48,2.48,0,0,1-1.25-.34l-3-1.65-1-.54-.41,1-1.28,3.25a2.59,2.59,0,0,1-2.45,1.72,2.64,2.64,0,0,1-2.55-2l-1-3.36-.32-1.08-1,.45L93,112a2.56,2.56,0,0,1-3.28-1.1,2.81,2.81,0,0,1-.08-2.79l1.59-3.1.5-1-1-.42-3.13-1.32a2.83,2.83,0,0,1,.22-5.25L91,96l1-.33-.41-1-1.31-3.23a2.81,2.81,0,0,1,.25-2.67,2.66,2.66,0,0,1,2.18-1.22,2.48,2.48,0,0,1,1.25.34l3,1.64,1,.55.42-1,1.28-3.25a2.57,2.57,0,0,1,2.45-1.72m0-1a3.58,3.58,0,0,0-3.38,2.35l-1.29,3.25L94.5,87a3.51,3.51,0,0,0-1.73-.46,3.79,3.79,0,0,0-3.36,5.27l1.31,3.23-3.24,1a3.83,3.83,0,0,0-.31,7.12l3.14,1.32-1.6,3.1a3.79,3.79,0,0,0,3.2,5.57,3.51,3.51,0,0,0,1.45-.31l3.12-1.35,1,3.35a3.62,3.62,0,0,0,6.89.33l1.28-3.25,3,1.65a3.51,3.51,0,0,0,1.73.46,3.79,3.79,0,0,0,3.36-5.27l-1.31-3.23,3.24-1a3.83,3.83,0,0,0,.31-7.12l-3.13-1.33L114.42,93a3.79,3.79,0,0,0-3.2-5.57,3.66,3.66,0,0,0-1.45.3l-3.12,1.36-1-3.35a3.61,3.61,0,0,0-3.5-2.68Z"/><path class="bb021a69-9ae0-42cd-8fad-defa2bd25246" d="M99.26,96.39c.52,0,1.31,1.2,1.31,3s-.79,3-1.31,3-1.32-1.2-1.32-3,.79-3,1.32-3m0-1c-1.28,0-2.32,1.79-2.32,4s1,4,2.32,4,2.31-1.79,2.31-4-1-4-2.31-4Z"/><path class="bb021a69-9ae0-42cd-8fad-defa2bd25246" d="M105.74,96.34c.52,0,1.31,1.2,1.31,3s-.79,3-1.31,3-1.31-1.2-1.31-3,.79-3,1.31-3m0-1c-1.28,0-2.31,1.8-2.31,4s1,4,2.31,4,2.31-1.79,2.31-4-1-4-2.31-4Z"/><ellipse class="bb021a69-9ae0-42cd-8fad-defa2bd25246" cx="99.37" cy="97.33" rx="1.61" ry="1.67"/><ellipse class="bb021a69-9ae0-42cd-8fad-defa2bd25246" cx="105.74" cy="97.3" rx="1.61" ry="1.67"/></svg>