<svg id="f5f2c2c9-ca0f-4886-81d2-5a8fca0e91bc" data-name="Calque 1" xmlns="http://www.w3.org/2000/svg" viewBox="0 0 199.13 200.67"><defs><style>.b5264d34-20c8-4544-88c6-41e9e2f33d3e{fill:none;stroke:#e55b2b;stroke-miterlimit:10;}.bb8380f0-ac1e-41fa-956c-091f178f0139{fill:#e55b2b;}</style></defs><title>original</title><path class="b5264d34-20c8-4544-88c6-41e9e2f33d3e" d="M100,39.06S-11.29,53.19,47.34,133.69s65.36,43.89,73.15,30.79c13.4-22.56,8.15-8.4,31.32-46.79C177.42,75.24,138.64,35.27,100,39.06Z"/><path class="b5264d34-20c8-4544-88c6-41e9e2f33d3e" d="M37.91,27.74s24.53-7.82,40.9,15.79C78.81,43.53,57.62,57.63,37.91,27.74Z"/><path class="b5264d34-20c8-4544-88c6-41e9e2f33d3e" d="M78.35,43.8s11.93,22.82-8.5,43C69.85,86.81,52.3,68.37,78.35,43.8Z"/><path class="b5264d34-20c8-4544-88c6-41e9e2f33d3e" d="M78.65,43.82s25.71-1.51,35.71,25.42C114.36,69.24,90.34,77.66,78.65,43.82Z"/><path class="b5264d34-20c8-4544-88c6-41e9e2f33d3e" d="M104,7.89S79.3,15.08,78.89,43.8C78.89,43.8,104.34,43.69,104,7.89Z"/><path class="bb8380f0-ac1e-41fa-956c-091f178f0139" d="M97.73,83c6,0,10.85,8.47,10.85,18.87s-4.86,18.87-10.85,18.87-10.85-8.47-10.85-18.87S91.75,83,97.73,83m0-1c-6.54,0-11.85,8.9-11.85,19.87s5.31,19.87,11.85,19.87,11.85-8.9,11.85-19.87S104.28,82,97.73,82Z"/><path class="bb8380f0-ac1e-41fa-956c-091f178f0139" d="M131,82.74c6,0,10.85,8.47,10.85,18.87S137,120.48,131,120.48s-10.85-8.47-10.85-18.87S125,82.74,131,82.74m0-1c-6.55,0-11.85,8.9-11.85,19.87s5.3,19.87,11.85,19.87,11.85-8.9,11.85-19.87S137.54,81.74,131,81.74Z"/><circle class="bb8380f0-ac1e-41fa-956c-091f178f0139" cx="94.15" cy="106.06" r="8.27"/><circle class="bb8380f0-ac1e-41fa-956c-091f178f0139" cx="128.11" cy="104.83" r="8.27"/><path class="bb8380f0-ac1e-41fa-956c-091f178f0139" d="M99.29,130.94a.85.85,0,0,1,.76-.52c3.08-.32,14.87-2.11,26-1.77,4.15.13-3.4,16.22-10.61,16.82C110.68,145.85,97.66,136.25,99.29,130.94Z"/><path class="b5264d34-20c8-4544-88c6-41e9e2f33d3e" d="M112.33,178.83c21.15,13.85,25-6.64,30.34-15.58,13.41-22.56,8.15-8.4,31.32-46.79,25.62-42.45-21.84-80.77-60.45-77"/><path class="bb8380f0-ac1e-41fa-956c-091f178f0139" d="M66.41,114.29a1.5,1.5,0,0,0,0-3,1.5,1.5,0,0,0,0,3Z"/><path class="bb8380f0-ac1e-41fa-956c-091f178f0139" d="M84.21,128.12a1.5,1.5,0,0,0,0-3,1.5,1.5,0,0,0,0,3Z"/><path class="bb8380f0-ac1e-41fa-956c-091f178f0139" d="M63.45,138a1.5,1.5,0,0,0,0-3,1.5,1.5,0,0,0,0,3Z"/></svg>