<svg id="ff273279-0284-467d-80b3-43e1a71e9414" data-name="Calque 1" xmlns="http://www.w3.org/2000/svg" viewBox="0 0 199.13 200.67"><defs><style>.ad3af1ec-3075-4a6b-88a0-5d947bb40709{fill:none;stroke:#e8bfd3;stroke-miterlimit:10;}.fc3ce27c-9211-41bf-9f42-1b679c10f47c{fill:#e8bfd3;}</style></defs><title>peureux</title><path class="ad3af1ec-3075-4a6b-88a0-5d947bb40709" d="M110.56,44.35S-.46,58.44,58,138.73s65.17,43.77,72.94,30.7c13.37-22.5,8.13-8.38,31.24-46.67C187.74,80.44,149.07,40.57,110.56,44.35Z"/><path class="ad3af1ec-3075-4a6b-88a0-5d947bb40709" d="M48.61,33.07S73.08,25.26,89.4,48.81C89.4,48.81,68.27,62.87,48.61,33.07Z"/><path class="ad3af1ec-3075-4a6b-88a0-5d947bb40709" d="M88.93,49.08S100.84,71.83,80.46,92C80.46,92,63,73.58,88.93,49.08Z"/><path class="ad3af1ec-3075-4a6b-88a0-5d947bb40709" d="M89.24,49.1s25.64-1.5,35.62,25.35C124.86,74.45,100.9,82.84,89.24,49.1Z"/><path class="ad3af1ec-3075-4a6b-88a0-5d947bb40709" d="M114.54,13.26S89.88,20.43,89.48,49.08C89.48,49.08,114.86,49,114.54,13.26Z"/><path class="fc3ce27c-9211-41bf-9f42-1b679c10f47c" d="M94.67,93.59c6,0,10.81,8.44,10.81,18.81s-4.85,18.82-10.81,18.82-10.82-8.44-10.82-18.82S88.7,93.59,94.67,93.59m0-1c-6.53,0-11.82,8.87-11.82,19.81s5.29,19.82,11.82,19.82,11.81-8.87,11.81-19.82-5.29-19.81-11.81-19.81Z"/><path class="fc3ce27c-9211-41bf-9f42-1b679c10f47c" d="M127.84,93.36c6,0,10.81,8.44,10.81,18.81S133.8,131,127.84,131,117,122.55,117,112.17s4.85-18.81,10.82-18.81m0-1c-6.53,0-11.82,8.87-11.82,19.81S121.31,132,127.84,132s11.81-8.87,11.81-19.82-5.29-19.81-11.81-19.81Z"/><circle class="fc3ce27c-9211-41bf-9f42-1b679c10f47c" cx="91.1" cy="116.61" r="8.25"/><circle class="fc3ce27c-9211-41bf-9f42-1b679c10f47c" cx="124.96" cy="115.38" r="8.25"/><path class="fc3ce27c-9211-41bf-9f42-1b679c10f47c" d="M133.11,90.73A11,11,0,0,1,125,89.22a6.41,6.41,0,0,1-2.66-6.47c.23-.94-1.21-1.34-1.44-.4a7.9,7.9,0,0,0,3.06,8c2.71,2.09,6.31,2.39,9.58,1.87.95-.16.55-1.6-.39-1.45Z"/><path class="fc3ce27c-9211-41bf-9f42-1b679c10f47c" d="M89.21,92.21c3.27.53,6.87.22,9.58-1.87a7.9,7.9,0,0,0,3.07-8,.75.75,0,0,0-1.45.39,6.44,6.44,0,0,1-2.65,6.48,11,11,0,0,1-8.15,1.51c-1-.16-1.35,1.29-.4,1.44Z"/><path class="fc3ce27c-9211-41bf-9f42-1b679c10f47c" d="M119.92,143.13a.56.56,0,0,1-.49.31,111.4,111.4,0,0,1-16.28.83c-2.6-.13,2.31-10.14,6.83-10.43C112.94,133.65,121,139.81,119.92,143.13Z"/><path class="fc3ce27c-9211-41bf-9f42-1b679c10f47c" d="M61.52,109.87a1.5,1.5,0,0,0,0-3,1.5,1.5,0,0,0,0,3Z"/><path class="fc3ce27c-9211-41bf-9f42-1b679c10f47c" d="M65.89,130.83a1.5,1.5,0,0,0,0-3,1.5,1.5,0,0,0,0,3Z"/><path class="fc3ce27c-9211-41bf-9f42-1b679c10f47c" d="M74.62,116.86a1.5,1.5,0,0,0,0-3,1.5,1.5,0,0,0,0,3Z"/><path class="fc3ce27c-9211-41bf-9f42-1b679c10f47c" d="M148.86,100.26a1.5,1.5,0,0,0,0-3,1.5,1.5,0,0,0,0,3Z"/><path class="fc3ce27c-9211-41bf-9f42-1b679c10f47c" d="M145.37,112.49a1.5,1.5,0,0,0,0-3,1.5,1.5,0,0,0,0,3Z"/><path class="fc3ce27c-9211-41bf-9f42-1b679c10f47c" d="M157.59,116.86a1.5,1.5,0,0,0,0-3,1.5,1.5,0,0,0,0,3Z"/></svg>