<svg id="b8ea4b90-30ba-4de7-a74b-2b6abbea29b7" data-name="Calque 1" xmlns="http://www.w3.org/2000/svg" viewBox="0 0 199.13 200.67"><defs><style>.b090d25b-5811-45b1-b62a-267293d8e5bd{fill:#94ccb5;}</style></defs><title>reveur</title><path class="b090d25b-5811-45b1-b62a-267293d8e5bd" d="M99.49,75.51a12.5,12.5,0,0,1,12.17,9l3.7,12.14.32,1.06,1-.43,11.7-4.92a12.54,12.54,0,0,1,15.87,5.25,12.38,12.38,0,0,1,.26,12.43l-6,11.2-.52,1,1,.41,11.75,4.8a12.7,12.7,0,0,1-1.09,23.9L137.58,155l-1.06.32.43,1,4.92,11.7a12.41,12.41,0,0,1-1.06,11.86,12.94,12.94,0,0,1-10.61,5.82,12.66,12.66,0,0,1-6-1.55l-11.2-6-1-.52-.42,1-4.79,11.75a12.69,12.69,0,0,1-23.9-1.1l-3.7-12.14-.33-1.06-1,.43-11.7,4.92a12.53,12.53,0,0,1-15.86-5.25A12.36,12.36,0,0,1,50,163.86l6-11.2.52-1-1-.42-11.75-4.8a12.69,12.69,0,0,1,1.1-23.9L57,118.87l1.06-.32-.43-1-4.92-11.7A12.41,12.41,0,0,1,53.74,94a12.94,12.94,0,0,1,10.62-5.81,12.69,12.69,0,0,1,6,1.54l11.2,6,1,.52.42-1,4.8-11.75a12.46,12.46,0,0,1,11.73-7.9m0-1A13.44,13.44,0,0,0,86.83,83L82,94.79l-11.2-6a13.63,13.63,0,0,0-6.47-1.66c-9.07,0-16.64,9.42-12.59,19l4.91,11.7-12.14,3.7c-12.32,3.76-13.11,20.92-1.18,25.79l11.75,4.79-6,11.2c-5.12,9.63,2.37,20.19,12,20.19a13.87,13.87,0,0,0,5.4-1.12l11.7-4.92,3.7,12.14a13.69,13.69,0,0,0,25.78,1.19l4.8-11.76,11.2,6a13.71,13.71,0,0,0,6.48,1.67c9.07,0,16.63-9.43,12.59-19.06L137.87,156l12.14-3.7c12.33-3.76,13.11-20.92,1.18-25.79l-11.75-4.79,6-11.2c5.13-9.63-2.37-20.19-12-20.19A13.88,13.88,0,0,0,128,91.44l-11.7,4.92-3.7-12.14a13.48,13.48,0,0,0-13.12-9.71Z"/><path class="b090d25b-5811-45b1-b62a-267293d8e5bd" d="M88.63,120c4.14,0,7.65,6.19,7.65,13.51s-3.51,13.5-7.65,13.5S81,140.86,81,133.55,84.48,120,88.63,120m0-1c-4.78,0-8.65,6.5-8.65,14.51s3.87,14.5,8.65,14.5,8.65-6.49,8.65-14.5S93.4,119,88.63,119Z"/><path class="b090d25b-5811-45b1-b62a-267293d8e5bd" d="M112.91,119.87c4.14,0,7.65,6.19,7.65,13.51s-3.51,13.5-7.65,13.5-7.65-6.18-7.65-13.5,3.5-13.51,7.65-13.51m0-1c-4.78,0-8.65,6.5-8.65,14.51s3.87,14.5,8.65,14.5,8.65-6.49,8.65-14.5-3.87-14.51-8.65-14.51Z"/><circle class="b090d25b-5811-45b1-b62a-267293d8e5bd" cx="89.71" cy="127.51" r="6.04"/><circle class="b090d25b-5811-45b1-b62a-267293d8e5bd" cx="113.99" cy="127" r="6.04"/><path class="b090d25b-5811-45b1-b62a-267293d8e5bd" d="M101.26,160.83a8.31,8.31,0,0,0,9.34-3.32c.53-.81-.77-1.56-1.29-.76a6.79,6.79,0,0,1-7.65,2.63c-.92-.3-1.31,1.15-.4,1.45Z"/><path class="b090d25b-5811-45b1-b62a-267293d8e5bd" d="M127.38,1.84a5.14,5.14,0,0,1,4.86,3.31A7.2,7.2,0,0,0,139,9.73a7.25,7.25,0,0,0,2.11-.32,5.53,5.53,0,0,1,1.59-.24,5.23,5.23,0,0,1,4.49,2.65,5.08,5.08,0,0,1,0,5.2,7.27,7.27,0,0,0,2.18,9.57,5.22,5.22,0,0,1-2.16,9.48,7.28,7.28,0,0,0-6.12,7.68,5,5,0,0,1-1.34,3.91,5.38,5.38,0,0,1-3.92,1.71,5.11,5.11,0,0,1-3.51-1.4,7.23,7.23,0,0,0-9.81,0,5.09,5.09,0,0,1-3.51,1.4,5.35,5.35,0,0,1-3.91-1.71,5.07,5.07,0,0,1-1.35-3.91,7.26,7.26,0,0,0-6.12-7.68,5.23,5.23,0,0,1-2.16-9.48A7.27,7.27,0,0,0,107.6,17a5.1,5.1,0,0,1,0-5.2,5.23,5.23,0,0,1,4.49-2.65,5.48,5.48,0,0,1,1.59.24,7.26,7.26,0,0,0,2.12.32,7.19,7.19,0,0,0,6.72-4.58,5.16,5.16,0,0,1,4.87-3.31m0-1a6.15,6.15,0,0,0-5.8,4h0a6.23,6.23,0,0,1-5.79,3.94A6.44,6.44,0,0,1,114,8.46a6.2,6.2,0,0,0-7.22,9.06h0a6.22,6.22,0,0,1-1.89,8.24h0a6.23,6.23,0,0,0,2.58,11.3,6.23,6.23,0,0,1,5.28,6.61,6.22,6.22,0,0,0,6.25,6.7,6.1,6.1,0,0,0,4.19-1.67,6.25,6.25,0,0,1,8.46,0,6.07,6.07,0,0,0,4.18,1.67,6.24,6.24,0,0,0,6.26-6.7,6.23,6.23,0,0,1,5.27-6.61,6.23,6.23,0,0,0,2.58-11.3h0A6.22,6.22,0,0,1,148,17.52h0a6.21,6.21,0,0,0-7.23-9.06,6.42,6.42,0,0,1-1.82.27,6.24,6.24,0,0,1-5.8-3.94h0A6.13,6.13,0,0,0,127.38.84Z"/><path class="b090d25b-5811-45b1-b62a-267293d8e5bd" d="M133.19,61.92a.69.69,0,0,1,.66.45,2.71,2.71,0,0,0,3.32,1.6.57.57,0,0,1,.22,0,.7.7,0,0,1,.6.37.66.66,0,0,1,0,.7,2.73,2.73,0,0,0,.82,3.59.68.68,0,0,1,.29.74.67.67,0,0,1-.58.54,2.73,2.73,0,0,0-2.3,2.88.67.67,0,0,1-.17.53.81.81,0,0,1-.55.23.67.67,0,0,1-.47-.19,2.7,2.7,0,0,0-3.67,0,.67.67,0,0,1-.47.19.79.79,0,0,1-.55-.23.67.67,0,0,1-.17-.53,2.73,2.73,0,0,0-2.3-2.88.67.67,0,0,1-.58-.54.68.68,0,0,1,.29-.74A2.73,2.73,0,0,0,128.4,65a.68.68,0,0,1,0-.7.73.73,0,0,1,.61-.37.6.6,0,0,1,.22,0,2.7,2.7,0,0,0,3.31-1.6.7.7,0,0,1,.66-.45m0-1A1.69,1.69,0,0,0,131.6,62,1.71,1.71,0,0,1,130,63.09a1.8,1.8,0,0,1-.5-.08,1.86,1.86,0,0,0-.51-.08,1.72,1.72,0,0,0-1.47,2.57,1.71,1.71,0,0,1-.52,2.26,1.71,1.71,0,0,0,.71,3.1,1.73,1.73,0,0,1,1.45,1.82A1.71,1.71,0,0,0,132,74.06a1.69,1.69,0,0,1,1.16-.46,1.66,1.66,0,0,1,1.16.46,1.72,1.72,0,0,0,2.87-1.38,1.73,1.73,0,0,1,1.45-1.82,1.71,1.71,0,0,0,.7-3.1h0a1.71,1.71,0,0,1-.51-2.26,1.72,1.72,0,0,0-1.47-2.57,1.81,1.81,0,0,0-.51.08,1.81,1.81,0,0,1-.51.08A1.73,1.73,0,0,1,134.78,62a1.67,1.67,0,0,0-1.59-1.08Z"/></svg>