<svg id="acd1cbab-b56c-44c3-88a6-1e28acc87ba5" data-name="Calque 1" xmlns="http://www.w3.org/2000/svg" viewBox="0 0 199.13 200.67"><defs><style>.b79d1dc6-77b7-4d84-82f6-f49a18901de4{fill:none;stroke:#967b2b;stroke-miterlimit:10;}.b1d6815e-407b-4bd9-98c5-8bc20919e197{fill:#967b2b;}</style></defs><title>seul</title><polyline class="b79d1dc6-77b7-4d84-82f6-f49a18901de4" points="77.8 44.85 108.03 11.32 92.05 106.13"/><path class="b1d6815e-407b-4bd9-98c5-8bc20919e197" d="M113.34,100.19c9,0,16.7,4.27,22.17,12.33,5.21,7.68,8.07,18.43,8.07,30.27a43.58,43.58,0,0,1-12.33,30.13c-7.56,7.92-17.26,12.46-26.63,12.46a12.4,12.4,0,0,1-7.73-2.1,17.73,17.73,0,0,0-2.8-1.46l-.37-.15-.36.15a13.21,13.21,0,0,0-2.73,1.51c-1.58,1.06-3.07,2-7.8,2-9.37,0-19.07-4.54-26.63-12.46a43.54,43.54,0,0,1-12.34-30.13c0-23.46,13.36-40.68,32.49-41.87.63,0,1.26-.06,1.85-.06,5.74,0,8.78,1.8,11.21,3.74a7.56,7.56,0,0,0,8.67.55c3.9-2.4,8.62-5,15.26-5m0-1c-7.12,0-12.2,2.9-15.78,5.1a6.54,6.54,0,0,1-7.52-.47c-2.35-1.87-5.58-4-11.84-4-.61,0-1.24,0-1.91.06-19.63,1.23-33.43,18.79-33.43,42.87s20.3,43.59,40,43.59c7.26,0,7.46-2.28,10.89-3.63,3.44,1.35,4.36,3.63,10.9,3.63,19.66,0,40-19.52,40-43.59S133,99.19,113.34,99.19Z"/><path class="b1d6815e-407b-4bd9-98c5-8bc20919e197" d="M59.83,130c3.92,0,7.23,5.86,7.23,12.8s-3.31,12.81-7.23,12.81-7.24-5.86-7.24-12.81S55.91,130,59.83,130m0-1c-4.55,0-8.24,6.18-8.24,13.8s3.69,13.81,8.24,13.81,8.23-6.18,8.23-13.81S64.38,129,59.83,129Z"/><path class="b1d6815e-407b-4bd9-98c5-8bc20919e197" d="M83.08,130c3.93,0,7.24,5.86,7.24,12.8S87,155.63,83.08,155.63s-7.23-5.86-7.23-12.81S79.16,130,83.08,130m0-1c-4.55,0-8.23,6.18-8.23,13.8s3.68,13.81,8.23,13.81,8.24-6.18,8.24-13.81S87.63,129,83.08,129Z"/><circle class="b1d6815e-407b-4bd9-98c5-8bc20919e197" cx="57.9" cy="143.92" r="6.18"/><circle class="b1d6815e-407b-4bd9-98c5-8bc20919e197" cx="81.15" cy="146.1" r="6.18"/><path class="b79d1dc6-77b7-4d84-82f6-f49a18901de4" d="M110.7,28.28s22.11-15.22,45.57,3.4C156.27,31.68,139.39,52.15,110.7,28.28Z"/><path class="b1d6815e-407b-4bd9-98c5-8bc20919e197" d="M84.45,163.93a11.53,11.53,0,0,0-13.51,2.59c-.64.72.42,1.79,1.06,1.06a10,10,0,0,1,11.69-2.35c.87.42,1.63-.87.76-1.3Z"/></svg>