<svg id="fda73fa0-352d-497f-8eed-7c0e449bc2be" data-name="Calque 1" xmlns="http://www.w3.org/2000/svg" viewBox="0 0 199.13 200.67"><defs><style>.a6438036-7a26-4992-bec7-ead95206ef52{fill:none;stroke:#eef3df;stroke-miterlimit:10;}.b0f2bca9-af0c-4bb4-81e7-a5c7239fdd59{fill:#eef3df;}</style></defs><title>vexe</title><path class="a6438036-7a26-4992-bec7-ead95206ef52" d="M111.21,40.78S2.45,54.58,59.73,133.24s63.86,42.88,71.47,30.08c13.1-22,8-8.21,30.6-45.72C186.82,76.13,148.94,37.08,111.21,40.78Z"/><path class="b0f2bca9-af0c-4bb4-81e7-a5c7239fdd59" d="M95.64,89c5.83,0,10.58,8.26,10.58,18.41s-4.75,18.41-10.58,18.41-10.58-8.26-10.58-18.41S89.81,89,95.64,89m0-1c-6.39,0-11.58,8.69-11.58,19.41s5.19,19.41,11.58,19.41,11.58-8.69,11.58-19.41S102,88,95.64,88Z"/><path class="b0f2bca9-af0c-4bb4-81e7-a5c7239fdd59" d="M128.14,88.82c5.83,0,10.58,8.25,10.58,18.41s-4.75,18.41-10.58,18.41-10.58-8.26-10.58-18.41,4.74-18.41,10.58-18.41m0-1c-6.4,0-11.58,8.69-11.58,19.41s5.18,19.41,11.58,19.41,11.58-8.69,11.58-19.41-5.19-19.41-11.58-19.41Z"/><circle class="b0f2bca9-af0c-4bb4-81e7-a5c7239fdd59" cx="99.14" cy="110.37" r="8.08"/><circle class="b0f2bca9-af0c-4bb4-81e7-a5c7239fdd59" cx="130.82" cy="110.37" r="8.08"/><path class="b0f2bca9-af0c-4bb4-81e7-a5c7239fdd59" d="M71.87,129.68a44.73,44.73,0,0,0,16.33-2l-.58-1.37L69,134.43c-.67.29-.34,1.46.38,1.4l16.37-1.51L85.17,133a17.38,17.38,0,0,1-11.09,5.31c-1,.07-1,1.58,0,1.5a18.94,18.94,0,0,0,12.15-5.75c.42-.44.15-1.35-.53-1.28l-16.37,1.51.38,1.4,18.66-8.11c.79-.34.23-1.63-.57-1.37a43.86,43.86,0,0,1-15.93,1.93c-1-.07-1,1.43,0,1.5Z"/><path class="b0f2bca9-af0c-4bb4-81e7-a5c7239fdd59" d="M105.16,139.85h13.4a.75.75,0,0,0,0-1.5h-13.4a.75.75,0,0,0,0,1.5Z"/><path class="b0f2bca9-af0c-4bb4-81e7-a5c7239fdd59" d="M138.65,123.76l15.45,0-.2-1.47A135.6,135.6,0,0,0,132,127.68a.75.75,0,0,0,.4,1.44,87.59,87.59,0,0,1,18.94-.66l-.37-1.39a29.82,29.82,0,0,1-13.83,5.83c-.89.14-.59,1.42.2,1.48a10.21,10.21,0,0,0,7.76-2.72c.71-.66-.35-1.71-1.06-1.06a8.74,8.74,0,0,1-6.7,2.28l.2,1.47a30.72,30.72,0,0,0,14.18-6,.76.76,0,0,0-.38-1.4,88.76,88.76,0,0,0-19.34.72l.4,1.44a136.62,136.62,0,0,1,21.93-5.4c.84-.14.62-1.48-.2-1.48l-15.45,0a.75.75,0,0,0,0,1.5Z"/><path class="b0f2bca9-af0c-4bb4-81e7-a5c7239fdd59" d="M93.66,84.3l11.55,6.47a1.13,1.13,0,0,0,1.13-2L94.79,82.35a1.13,1.13,0,0,0-1.13,2Z"/><path class="b0f2bca9-af0c-4bb4-81e7-a5c7239fdd59" d="M117.76,91.3a117.35,117.35,0,0,1,10-9,1.12,1.12,0,0,0,0-1.59,1.15,1.15,0,0,0-1.59,0,115.86,115.86,0,0,0-10,9c-1,1,.57,2.62,1.59,1.59Z"/><path class="a6438036-7a26-4992-bec7-ead95206ef52" d="M41.32,33.46s24-7.64,39.95,15.42C81.27,48.88,60.57,62.67,41.32,33.46Z"/><path class="a6438036-7a26-4992-bec7-ead95206ef52" d="M80.82,49.15s11.67,22.29-8.3,42C72.52,91.17,55.38,73.16,80.82,49.15Z"/><path class="a6438036-7a26-4992-bec7-ead95206ef52" d="M81.12,49.17S106.24,47.7,116,74C116,74,92.54,82.23,81.12,49.17Z"/><path class="a6438036-7a26-4992-bec7-ead95206ef52" d="M105.91,14.06s-24.16,7-24.56,35.09C81.35,49.15,106.22,49,105.91,14.06Z"/><path class="b0f2bca9-af0c-4bb4-81e7-a5c7239fdd59" d="M66.28,110.62a1.5,1.5,0,0,0,0-3,1.5,1.5,0,0,0,0,3Z"/><path class="b0f2bca9-af0c-4bb4-81e7-a5c7239fdd59" d="M148.42,104.63a1.5,1.5,0,0,0,0-3,1.5,1.5,0,0,0,0,3Z"/><path class="b0f2bca9-af0c-4bb4-81e7-a5c7239fdd59" d="M149.28,88.37a1.5,1.5,0,0,0,0-3,1.5,1.5,0,0,0,0,3Z"/><path class="b0f2bca9-af0c-4bb4-81e7-a5c7239fdd59" d="M161.26,96.07a1.5,1.5,0,0,0,0-3,1.5,1.5,0,0,0,0,3Z"/><path class="b0f2bca9-af0c-4bb4-81e7-a5c7239fdd59" d="M50,98.64a1.5,1.5,0,0,0,0-3,1.5,1.5,0,0,0,0,3Z"/></svg>