<svg id="ab3534f7-9cbd-4ff4-ad72-24ccd6f54806" data-name="Calque 1" xmlns="http://www.w3.org/2000/svg" viewBox="0 0 199.13 200.67"><defs><style>.a12cf2ae-74ab-4728-912e-2da96531f357{fill:#ecbed4;}</style></defs><title>waouh</title><path class="a12cf2ae-74ab-4728-912e-2da96531f357" d="M104.24,10.35a19.15,19.15,0,0,1,18.65,13.79l5.52,18.13.33,1.06,1-.43,17.47-7.35A19.86,19.86,0,0,1,154.91,34a19.62,19.62,0,0,1,16.63,9.63,18.94,18.94,0,0,1,.4,19L163,79.37l-.52,1,1,.42,17.55,7.16a19.46,19.46,0,0,1-1.68,36.63l-18.13,5.52-1.06.33.43,1L168,148.89a19,19,0,0,1-1.62,18.18,19.84,19.84,0,0,1-16.26,8.9,19.46,19.46,0,0,1-9.21-2.37l-16.73-8.91-1-.52-.42,1-7.17,17.55A19.45,19.45,0,0,1,79,181.06l-5.53-18.13-.32-1.06-1,.43-17.47,7.35A19.91,19.91,0,0,1,47,171.24a19.6,19.6,0,0,1-16.62-9.63,18.94,18.94,0,0,1-.4-19.05l8.91-16.73.52-1-1-.42L20.8,117.28a19.46,19.46,0,0,1,1.67-36.63l18.14-5.52,1.06-.33-.43-1L33.89,56.31a19.05,19.05,0,0,1,1.62-18.18,19.84,19.84,0,0,1,16.26-8.9A19.46,19.46,0,0,1,61,31.6L77.7,40.51l1,.52.42-1,7.16-17.55a19.12,19.12,0,0,1,18-12.11m0-1a20.07,20.07,0,0,0-18.9,12.73L78.17,39.63,61.45,30.72a20.43,20.43,0,0,0-9.68-2.49C38.23,28.23,26.92,42.31,33,56.7l7.34,17.47L22.18,79.7C3.77,85.31,2.6,110.93,20.42,118.2L38,125.36l-8.92,16.73C21.4,156.47,32.59,172.24,47,172.24A20.7,20.7,0,0,0,55,170.57l17.48-7.35L78,181.36a20.46,20.46,0,0,0,38.51,1.76l7.16-17.55,16.73,8.91a20.43,20.43,0,0,0,9.68,2.49c13.54,0,24.84-14.08,18.8-28.46L161.56,131l18.13-5.53c18.42-5.61,19.59-31.23,1.77-38.5l-17.55-7.16,8.91-16.73C180.48,48.73,169.29,33,154.91,33a20.77,20.77,0,0,0-8.07,1.67L129.37,42l-5.53-18.14a20.14,20.14,0,0,0-19.6-14.49Z"/><path class="a12cf2ae-74ab-4728-912e-2da96531f357" d="M94.5,115.8a.73.73,0,0,1,.66-.44c2.68-.28,12.92-1.84,22.55-1.54,3.61.11-3,14.1-9.22,14.61C104.4,128.77,93.08,120.42,94.5,115.8Z"/><path class="a12cf2ae-74ab-4728-912e-2da96531f357" d="M122.48,68.49c6.57,0,11.92,9.27,11.92,20.66s-5.35,20.66-11.92,20.66-11.92-9.27-11.92-20.66,5.34-20.66,11.92-20.66m0-1c-7.14,0-12.92,9.7-12.92,21.66s5.78,21.66,12.92,21.66,12.92-9.7,12.92-21.66-5.79-21.66-12.92-21.66Z"/><path class="a12cf2ae-74ab-4728-912e-2da96531f357" d="M85.4,68.49c6.58,0,11.92,9.27,11.92,20.66S92,109.81,85.4,109.81s-11.92-9.27-11.92-20.66S78.83,68.49,85.4,68.49m0-1c-7.13,0-12.92,9.7-12.92,21.66s5.79,21.66,12.92,21.66,12.92-9.7,12.92-21.66S92.54,67.49,85.4,67.49Z"/><path class="a12cf2ae-74ab-4728-912e-2da96531f357" d="M98.18,81.08l-4.43,6.44a.65.65,0,0,0,.13.87L100,93.31a.65.65,0,0,1-.36,1.15L91.8,95a.65.65,0,0,0-.6.64l-.06,7.82a.65.65,0,0,1-1.12.44l-5.3-5.75a.64.64,0,0,0-.87-.07l-6.15,4.83a.65.65,0,0,1-1-.61l1.19-7.73a.64.64,0,0,0-.49-.72l-7.61-1.8a.65.65,0,0,1-.17-1.19L76.36,87a.64.64,0,0,0,.27-.83l-3.34-7.07a.65.65,0,0,1,.82-.88l7.27,2.88a.63.63,0,0,0,.81-.31l3.45-7a.64.64,0,0,1,1.19.09l2.28,7.48a.65.65,0,0,0,.76.45l7.64-1.69A.65.65,0,0,1,98.18,81.08Z"/><path class="a12cf2ae-74ab-4728-912e-2da96531f357" d="M136,81.94l-4.43,6.45a.63.63,0,0,0,.13.86l6.07,4.92a.65.65,0,0,1-.36,1.15l-7.8.56a.65.65,0,0,0-.6.64l0,7.82a.65.65,0,0,1-1.12.43L122.51,99a.65.65,0,0,0-.88-.07l-6.14,4.83a.65.65,0,0,1-1-.61l1.19-7.72a.65.65,0,0,0-.49-.73l-7.61-1.8a.64.64,0,0,1-.17-1.18l6.78-3.89a.64.64,0,0,0,.26-.84l-3.34-7.07a.64.64,0,0,1,.82-.87L119.16,82a.65.65,0,0,0,.82-.32l3.44-7a.65.65,0,0,1,1.2.1l2.28,7.48a.65.65,0,0,0,.76.44l7.63-1.69A.65.65,0,0,1,136,81.94Z"/></svg>