<svg id="ea83baeb-cfb5-47b8-aa14-ab81752c7b2e" data-name="Calque 1" xmlns="http://www.w3.org/2000/svg" viewBox="0 0 199.13 200.67"><defs><style>.a5aa27f8-db8f-4447-85d4-cc470c6c58aa{fill:none;stroke:#967b2b;stroke-miterlimit:10;}.f8adcd85-4184-49f1-90ec-2c29d135978c{fill:#967b2b;}</style></defs><title>zen</title><path class="a5aa27f8-db8f-4447-85d4-cc470c6c58aa" d="M110.4,34.82S-10.17,50.12,53.33,137.31s70.78,47.54,79.22,33.35c14.52-24.43,8.83-9.1,33.92-50.68C194.21,74,152.22,30.72,110.4,34.82Z"/><path class="a5aa27f8-db8f-4447-85d4-cc470c6c58aa" d="M43.12,22.57s26.56-8.48,44.29,17.09C87.41,39.66,64.46,54.94,43.12,22.57Z"/><path class="a5aa27f8-db8f-4447-85d4-cc470c6c58aa" d="M86.91,40s12.93,24.71-9.2,46.57C77.71,86.53,58.7,66.56,86.91,40Z"/><path class="a5aa27f8-db8f-4447-85d4-cc470c6c58aa" d="M87.24,40s27.84-1.63,38.68,27.54C125.92,67.51,99.9,76.62,87.24,40Z"/><path class="a5aa27f8-db8f-4447-85d4-cc470c6c58aa" d="M114.72,1.06S87.94,8.85,87.5,40C87.5,40,115.07,39.83,114.72,1.06Z"/><path class="f8adcd85-4184-49f1-90ec-2c29d135978c" d="M57.13,105.85a1.5,1.5,0,0,0,0-3,1.5,1.5,0,0,0,0,3Z"/><path class="f8adcd85-4184-49f1-90ec-2c29d135978c" d="M61.88,128.61a1.5,1.5,0,0,0,0-3,1.5,1.5,0,0,0,0,3Z"/><path class="f8adcd85-4184-49f1-90ec-2c29d135978c" d="M71.36,113.44a1.5,1.5,0,0,0,0-3,1.5,1.5,0,0,0,0,3Z"/><path class="f8adcd85-4184-49f1-90ec-2c29d135978c" d="M152,95.42a1.5,1.5,0,0,0,0-3,1.5,1.5,0,0,0,0,3Z"/><path class="f8adcd85-4184-49f1-90ec-2c29d135978c" d="M148.19,108.69a1.5,1.5,0,0,0,0-3,1.5,1.5,0,0,0,0,3Z"/><path class="f8adcd85-4184-49f1-90ec-2c29d135978c" d="M161.47,113.44a1.5,1.5,0,0,0,0-3,1.5,1.5,0,0,0,0,3Z"/><path class="f8adcd85-4184-49f1-90ec-2c29d135978c" d="M114.52,143.27A11.94,11.94,0,0,0,128,138.51c.53-.81-.77-1.56-1.29-.75a10.44,10.44,0,0,1-11.75,4.07c-.92-.31-1.31,1.14-.4,1.44Z"/><path class="f8adcd85-4184-49f1-90ec-2c29d135978c" d="M114.17,114.4a20.53,20.53,0,0,0,10.14,2.95,19,19,0,0,0,13.51-5.7c.69-.68-.37-1.74-1.06-1.07A17.43,17.43,0,0,1,124,115.84a19,19,0,0,1-9.1-2.73.75.75,0,0,0-.76,1.29Z"/><path class="f8adcd85-4184-49f1-90ec-2c29d135978c" d="M83.13,117.36a19.62,19.62,0,0,0,10.46,3.1c5.29,0,9.65-2.82,12.53-7.16.53-.81-.77-1.56-1.3-.76A13.38,13.38,0,0,1,93.12,119a18.48,18.48,0,0,1-9.23-2.89c-.82-.52-1.57.77-.76,1.29Z"/><path class="f8adcd85-4184-49f1-90ec-2c29d135978c" d="M89.84,119.43a25.06,25.06,0,0,1-1.45,5.09.75.75,0,0,0,1.45.4,25,25,0,0,0,1.44-5.09.76.76,0,0,0-.52-.92.75.75,0,0,0-.92.52Z"/><path class="f8adcd85-4184-49f1-90ec-2c29d135978c" d="M97.89,118.74a8.61,8.61,0,0,0,2.36,3.78.75.75,0,0,0,1.06-1.06,7.72,7.72,0,0,1-.68-.72s-.14-.13-.16-.19.07.09,0,0l-.08-.11c-.1-.14-.19-.28-.28-.42a7.37,7.37,0,0,1-.48-.87l0-.1s-.08-.17,0-.07,0,0,0,0l0-.1c-.06-.17-.12-.34-.17-.51a.75.75,0,0,0-1.45.4Z"/><path class="f8adcd85-4184-49f1-90ec-2c29d135978c" d="M122.39,116.63h0l-.06.13a1.63,1.63,0,0,1-.11.23c-.08.17-.17.32-.26.48s-.19.31-.29.46l-.15.21a.44.44,0,0,1-.08.11s-.06.14,0,0a2.07,2.07,0,0,1-.33.39c-.12.14-.25.27-.38.4l-.39.37-.22.18s-.06.06-.09.07c.14-.07,0,0,0,0a.82.82,0,0,0-.35.45.78.78,0,0,0,.08.58.75.75,0,0,0,1,.27,9.31,9.31,0,0,0,3.09-4,.74.74,0,0,0-.08-.58.8.8,0,0,0-.44-.35.79.79,0,0,0-.93.53Z"/><path class="f8adcd85-4184-49f1-90ec-2c29d135978c" d="M130.94,116.26l2.58,4.46a.76.76,0,0,0,1,.27.77.77,0,0,0,.27-1l-2.59-4.45a.75.75,0,1,0-1.29.75Z"/></svg>