<svg id="Calque_1" data-name="Calque 1" xmlns="http://www.w3.org/2000/svg" viewBox="0 0 160.21 155.03"><defs><style>.cls-1,.cls-4{fill:#ecbed4;stroke-miterlimit:10;stroke-width:0.5px;}.cls-1{stroke:#ecbed4;}.cls-2{fill:#e55b2b;}.cls-3{fill:#eec5d9;}.cls-4{stroke:#e55b2b;}.cls-5{fill:#e86e43;}</style></defs><title>amoureux</title><rect class="cls-1" x="0.25" y="0.25" width="159.71" height="154.53" rx="10.37"/><path class="cls-2" d="M96.34,73.43s-14.5-21.84-38.58-9.05-8.82,39.77-3.2,41.64c0,0-9.93-4.09-2.83,7.61s12.06,13.25,12.38,12.59,26.58,17.59,35.31,10.21,5.46-26,3.69-33.23S101.18,78.9,96.34,73.43Z" transform="translate(-20.67 -22.22)"/><path class="cls-3" d="M62.81,104.91,63,105s0-.06-.06-.11S62.85,104.88,62.81,104.91Z" transform="translate(-20.67 -22.22)"/><path class="cls-3" d="M63.11,105h0Z" transform="translate(-20.67 -22.22)"/><path class="cls-3" d="M63.42,105.07a.28.28,0,0,0-.15,0A.17.17,0,0,0,63.42,105.07Z" transform="translate(-20.67 -22.22)"/><path class="cls-3" d="M63.21,104.94s0,.08,0,.1h.1A.15.15,0,0,1,63.21,104.94Z" transform="translate(-20.67 -22.22)"/><path class="cls-3" d="M63.21,104.94l0-.09A.32.32,0,0,0,63.21,104.94Z" transform="translate(-20.67 -22.22)"/><path class="cls-3" d="M63.52,104.15s0,.21,0,.18.27-.11.38-.08.09.24.15.2.52-.3.33-.32-.47,0-.73,0a5.06,5.06,0,0,1-.68.09.28.28,0,0,1-.15-.08l.18.19C63.12,104.41,63.34,104.16,63.52,104.15Z" transform="translate(-20.67 -22.22)"/><path class="cls-3" d="M61.72,104.28l.12,0c0,.21.19.22.34.21v-.13c-.08,0-.12,0-.08.11a.48.48,0,0,0-.34-.33C61.74,104.17,61.7,104.23,61.72,104.28Z" transform="translate(-20.67 -22.22)"/><path class="cls-3" d="M61.67,104.08l.09,0v0Z" transform="translate(-20.67 -22.22)"/><path class="cls-3" d="M64.07,105l1.08.19s.06-.1.09-.06a.36.36,0,0,0,.08.09l.15,0h.06a.09.09,0,0,0,0-.1.41.41,0,0,1-.05-.09l.05.09a.16.16,0,0,0,.07.07.26.26,0,0,1,.15,0,.19.19,0,0,1-.15,0l-.08,0,0,0,.35,0,.08,0c.08,0,.17,0,.22.06h.06v0l0,0,.27,0a1.1,1.1,0,0,1,.18-.14l.06.11a.24.24,0,0,1,.09-.12,2,2,0,0,0-.13-.19c-.07-.12-.13.24-.21,0,.08.23.14-.13.21,0a2,2,0,0,1,.13.19c.09,0,.2,0,.29.1-.1.11-.2,0-.29-.1a.24.24,0,0,0-.09.12l-.06-.11a1.1,1.1,0,0,0-.18.14l.54,0a12.81,12.81,0,0,0,3.46-.42l1.93-.37c1.27-.23,2.14-1,3.52-1.1a4.35,4.35,0,0,0,1.62-.82c.33-.65-.45-1.38-.5-1.42-.76-.58-.77,0-1.68-.09.59,0-.06.68-.77.38-1-.48-1.56.61-2.43.74a3,3,0,0,0-.62.24c-1.28.19-2.25.91-3.54,1a3.33,3.33,0,0,0-.88.45c-.21.06-.44,0-.61,0a2.06,2.06,0,0,0-.72.18c.25,0,.43-.09.71-.13s-.12.3-.25.37-.14-.21-.19-.15-.23.1-.36.16,0-.19-.06-.16-.33.33-.44.26a1.64,1.64,0,0,1-.22-.14.28.28,0,0,0-.13,0l-.11.05a.73.73,0,0,1,0,.26l-.14-.1.14.1a.73.73,0,0,0,0-.26,3.58,3.58,0,0,1-.79.23v0a.53.53,0,0,1,.41.23c-.06-.07,0-.13,0-.13l0,.13c-.14,0-.29.08-.37-.11l-.1.06s0-.12,0-.18h-.09A1.07,1.07,0,0,0,64.07,105Z" transform="translate(-20.67 -22.22)"/><path class="cls-3" d="M65.62,105.21h-.08l.3,0C65.79,105.15,65.7,105.18,65.62,105.21Z" transform="translate(-20.67 -22.22)"/><path class="cls-3" d="M77.15,106.39l0,0a.51.51,0,0,1,0,.09S77.13,106.44,77.15,106.39Z" transform="translate(-20.67 -22.22)"/><polygon class="cls-3" points="56.44 84.13 56.43 84.13 56.42 84.14 56.44 84.13"/><path class="cls-3" d="M77,106.38s0,0,0,0S77.06,106.36,77,106.38Z" transform="translate(-20.67 -22.22)"/><path class="cls-3" d="M77.05,106.45a.36.36,0,0,1,0-.09h0l0,0A.18.18,0,0,1,77.05,106.45Z" transform="translate(-20.67 -22.22)"/><path class="cls-3" d="M77.05,106.45l0,.09Z" transform="translate(-20.67 -22.22)"/><path class="cls-3" d="M76.69,107.22s.08-.19,0-.15-.13.13-.16.12.06-.21,0-.17-.29.3-.24.31a1.87,1.87,0,0,0,.25,0l.26-.21s0,0,0,0V107C76.9,106.92,76.75,107.19,76.69,107.22Z" transform="translate(-20.67 -22.22)"/><path class="cls-3" d="M77.31,106.61l0,.07c0-.17,0-.12-.06-.06l0,.11s0-.07,0-.12c0,.15,0,.18,0,.17A1,1,0,0,0,77.31,106.61Z" transform="translate(-20.67 -22.22)"/><polygon class="cls-3" points="56.62 84.55 56.6 84.56 56.6 84.58 56.62 84.55 56.62 84.55"/><path class="cls-3" d="M76.83,106.53a.37.37,0,0,1-.17-.13s-.06.08-.06,0a.59.59,0,0,0,0-.08l0,0h0l-.06.08,0,.08,0-.08a.39.39,0,0,0,0-.06s0,0,0,0,0,0,0,0l0,0v0l0-.06h0s-.06,0,0-.06v0l0,0-.11.09.06-.11a.36.36,0,0,1-.09.09l-.1.17c-.06.11.17-.17,0,0,.12-.19-.11.09,0,0l.1-.17s0,0,0-.13,0,0,0,.13a.36.36,0,0,0,.09-.09l-.06.11.11-.09,0-.11c-.07-.25-.22-.36-.27-.59a.86.86,0,0,1,.08-.43c.15-.28-.22-.31.3-.66.18-.11,0-.15,0-.2a10.19,10.19,0,0,0-1.47.26c-.84.26-.36.22-.79.55.24-.21.55-.09,0,.23-.79.52,0,.53-.07.83,0,.09.05.13.08.2,0,.52.51.58.75.9.09.07.31,0,.45-.07s.05.14.1.17.17,0,.28,0a2.18,2.18,0,0,1-.25,0s.21-.22.28-.26-.09.2-.05.16.11,0,.18-.09-.09.16-.07.15.26-.27.25-.2v.13s0,0,0,0l0,0,.12-.23s0,.08,0,.09,0-.07,0-.09l-.12.23.33-.24v0s-.06,0,0-.18c0,.06,0,.12-.06.12l0-.11c.06,0,.11-.1.06.07l0-.06-.07.16h0A2.67,2.67,0,0,0,76.83,106.53Z" transform="translate(-20.67 -22.22)"/><path class="cls-3" d="M76.57,106.37h0l0-.06C76.5,106.4,76.54,106.39,76.57,106.37Z" transform="translate(-20.67 -22.22)"/><path class="cls-3" d="M72.41,109.06a.08.08,0,0,0,0,0s0,0-.07,0S72.36,109.08,72.41,109.06Z" transform="translate(-20.67 -22.22)"/><path class="cls-3" d="M72.4,109h0Z" transform="translate(-20.67 -22.22)"/><path class="cls-3" d="M72.32,109s0,0,0,0S72.35,109,72.32,109Z" transform="translate(-20.67 -22.22)"/><path class="cls-3" d="M72.29,109l.09,0h0Z" transform="translate(-20.67 -22.22)"/><path class="cls-3" d="M72.29,109l-.08,0Z" transform="translate(-20.67 -22.22)"/><path class="cls-3" d="M71.51,109.35s.19-.09.13-.08-.18,0-.19,0,.18-.12.12-.11-.4.06-.36.09a1.28,1.28,0,0,0,.2.11h.33s0,0,0,0l.08-.1C71.87,109.27,71.57,109.37,71.51,109.35Z" transform="translate(-20.67 -22.22)"/><path class="cls-3" d="M72.39,109.37l-.08,0c.14-.1.07-.1,0-.1l-.11.06a.15.15,0,0,0,.12,0c-.11.09-.12.13-.08.16A1,1,0,0,0,72.39,109.37Z" transform="translate(-20.67 -22.22)"/><path class="cls-3" d="M72.26,109.47h0Z" transform="translate(-20.67 -22.22)"/><path class="cls-3" d="M72.06,108.91a.63.63,0,0,1-.08-.23s-.09,0-.07,0l.07,0v0h0a.18.18,0,0,0-.09,0l-.07,0,.07,0,.06,0a0,0,0,0,1,0,0s0,0,0,0H72a.28.28,0,0,1,0-.09h0s-.07,0,0-.07v0l0,0,0,0v-.07l-.14,0,.1-.06-.11,0-.17.11c-.11.06.23-.07,0,0,.2-.11-.14,0,0,0l.17-.11s0,0,.08-.11,0,0-.08.11l.11,0-.1.06.14,0s0-.09,0-.13a5.6,5.6,0,0,0-.1-.81,1.42,1.42,0,0,1,.11-.51c.14-.37-.25-.47.18-1,.15-.19,0-.32-.1-.41a5.55,5.55,0,0,0-1.38.56c-.77.43-.29.3-.69.66.22-.22.55-.15,0,.2-.78.52,0,.43-.14.71,0,.07,0,.1,0,.16-.16.41.31.52.38.84,0,.08.27.06.41.07s0,.13,0,.17.13.08.25.09a1.36,1.36,0,0,1-.21-.1s.29-.1.37-.1-.18.12-.13.11.12,0,.2,0-.17.08-.14.08.36-.08.31,0l-.07.09s0,0,0,0h.06l.23-.12-.06.07.06-.07-.23.12a2.7,2.7,0,0,1,.41,0h0s0-.06.09-.15c0,0-.1.06-.12,0l.1-.07c.07,0,.15,0,0,.1H72l-.15.08h0A1.7,1.7,0,0,0,72.06,108.91Z" transform="translate(-20.67 -22.22)"/><path class="cls-3" d="M71.92,108.59h0v-.07C71.85,108.58,71.88,108.58,71.92,108.59Z" transform="translate(-20.67 -22.22)"/><path class="cls-3" d="M65.77,111.41l0,0-.08,0S65.74,111.37,65.77,111.41Z" transform="translate(-20.67 -22.22)"/><polygon class="cls-3" points="45.19 89.12 45.2 89.12 45.19 89.1 45.19 89.12"/><path class="cls-3" d="M65.87,111.23s0,0,0,0S65.88,111.26,65.87,111.23Z" transform="translate(-20.67 -22.22)"/><path class="cls-3" d="M65.78,111.25a.22.22,0,0,1,.07.06h0v0Z" transform="translate(-20.67 -22.22)"/><path class="cls-3" d="M65.78,111.25l-.08,0Z" transform="translate(-20.67 -22.22)"/><path class="cls-3" d="M65.12,110.71s.18.12.15.08-.1-.17-.07-.2.19.09.16,0-.22-.35-.25-.29a2.46,2.46,0,0,0,0,.28c0,.11.08.23.1.34s0,0,0,0h.13C65.34,111,65.13,110.79,65.12,110.71Z" transform="translate(-20.67 -22.22)"/><path class="cls-3" d="M65.4,111.63l0-.08c.15.08.13,0,.11-.07l-.1-.06s0,.07.09.09c-.14-.06-.19,0-.2,0A.53.53,0,0,0,65.4,111.63Z" transform="translate(-20.67 -22.22)"/><path class="cls-3" d="M65.25,111.56v0l0,0v0Z" transform="translate(-20.67 -22.22)"/><path class="cls-3" d="M65.82,110.93a2,2,0,0,1,.23-.28s-.07-.07,0-.06l.08,0,0,0v0h0a.1.1,0,0,0-.08-.06l-.08,0,.08,0,.07,0s0,0,0,0,0,0,0,0l0,0v0l.09-.08v0s0-.08.08,0l0,0h0l.08-.06-.09-.12.12.05-.09-.09-.19-.07c-.11,0,.18.16,0,.06.2.1-.09-.11,0-.06l.19.07s0-.06.15,0,0,.06-.15,0l.09.09-.12-.05.09.12.14-.11a6,6,0,0,0,.77-.9,3.16,3.16,0,0,1,.55-.47c.43-.3.26-.77,1-1,.26-.11.23-.46.24-.63a3.44,3.44,0,0,0-1.42-.42c-.89-.09-.43.12-1,.21.32-.08.51.27-.11.24-.93-.08-.33.42-.64.58-.08,0-.07.11-.11.18-.43.22-.24.7-.5,1,0,.1.09.29.14.43s-.13.09-.16.13,0,.18,0,.3a2.43,2.43,0,0,1,0-.27c0-.06.24.2.27.27s-.2-.07-.16,0,0,.12.08.19-.16-.09-.15-.07.25.29.17.28h-.13s0,0,0,0l0,.06.21.14h0l-.21-.14a2.14,2.14,0,0,1,.15.42h0s.06-.08.2,0c0,0-.1-.06-.1-.08l.11,0c0,.08,0,.15-.11.08l0,.07a.49.49,0,0,1-.15-.09v0A1.92,1.92,0,0,0,65.82,110.93Z" transform="translate(-20.67 -22.22)"/><path class="cls-3" d="M66.12,110.52v0l.08-.06C66.1,110.44,66.11,110.48,66.12,110.52Z" transform="translate(-20.67 -22.22)"/><path class="cls-3" d="M99.84,119.92h-.18a.44.44,0,0,1,.1.16C99.81,120.12,99.81,120,99.84,119.92Z" transform="translate(-20.67 -22.22)"/><path class="cls-3" d="M99.49,119.91h0l0,0Z" transform="translate(-20.67 -22.22)"/><path class="cls-3" d="M99.22,120.1a.17.17,0,0,0,.15,0C99.32,120,99.27,120,99.22,120.1Z" transform="translate(-20.67 -22.22)"/><path class="cls-3" d="M99.48,120.16a.3.3,0,0,1,0-.2h0l-.07.09A.56.56,0,0,1,99.48,120.16Z" transform="translate(-20.67 -22.22)"/><path class="cls-3" d="M99.48,120.16l.08.16A.8.8,0,0,0,99.48,120.16Z" transform="translate(-20.67 -22.22)"/><path class="cls-3" d="M99.78,121.83c0,.06-.11-.41-.12-.3s0,.38-.1.4-.22-.37-.22-.25.15.8.21.73a1.8,1.8,0,0,1,.2-.39,1.68,1.68,0,0,1,.25-.64s.08,0,.12,0a1.2,1.2,0,0,0-.17-.21C99.85,121.08,99.83,121.71,99.78,121.83Z" transform="translate(-20.67 -22.22)"/><path class="cls-3" d="M101.05,120.33l-.13.13c0-.37-.21-.27-.35-.15l0,.24c.07,0,.1-.14.06-.26.1.32.19.39.34.38A.94.94,0,0,0,101.05,120.33Z" transform="translate(-20.67 -22.22)"/><path class="cls-3" d="M101.07,120.66H101v0l.09,0Z" transform="translate(-20.67 -22.22)"/><path class="cls-3" d="M98.82,120.72a6.41,6.41,0,0,0-.85.52c0,.09.11.17,0,.16a.68.68,0,0,0-.17-.07l-.12.09v.07h0a.32.32,0,0,0,.15.13l.17.07-.17-.07-.15,0c0,.06,0,.1-.06.12s0-.11.06-.12v-.1l0,0-.25.23a.28.28,0,0,0,0,.09c0,.1,0,.19-.2.13l0,0h0l-.16.2c.06.09.14.18.19.25l-.25,0a.46.46,0,0,1,.19.16l.42,0c.24.05-.4-.28,0-.16-.44-.12.2.21,0,.16l-.42,0c.06.1-.06.16-.3.14s.06-.16.3-.14a.46.46,0,0,0-.19-.16l.25,0c0-.07-.13-.16-.19-.25l-.3.4c-.31.41-.53.67-.74.75a1.77,1.77,0,0,1-1,.08c-.49-.08-1-.3-1.85-.42a3.28,3.28,0,0,0-2.32.82c-.66.5-1.23,1-2.17,1.64a2.07,2.07,0,0,0-.66,1.36,5.16,5.16,0,0,0,0,1.55,1.79,1.79,0,0,0,1.8.3c.61-.15,1.13-.33,1.19-.35.84-.3,1-.37,1.13-.49s.13-.27.68-.3c-.32,0-.59,0-.61-.19s.21-.29.79-.11c.88.3,1,.37.94.26s-.08-.35.06-.16,0,0,.06.06c.19.26.67.22,1.49,0a7.71,7.71,0,0,0,1.53-.54A5.74,5.74,0,0,0,99,125.48a1.82,1.82,0,0,0,.21-1.76c0-.26.3-.37.34-.46s-.07-.25-.22-.41a.63.63,0,0,1,.14.36c0,.13-.53-.32-.62-.44s.41.13.32.06-.16-.17-.23-.29.32.21.28.17-.46-.58-.32-.53a1.13,1.13,0,0,1,.24.08s.06,0,.07,0l0-.13-.32-.4s.14.07.18.08-.14-.08-.18-.08l.32.4a1.54,1.54,0,0,1,.06-.88v0c-.09.08-.19.09-.45-.11.1.07.16.19.12.24l-.16-.18c0-.17.08-.35.32-.08v-.18a1.65,1.65,0,0,1,.17.31.43.43,0,0,0,0-.07A1.82,1.82,0,0,0,98.82,120.72Z" transform="translate(-20.67 -22.22)"/><path class="cls-3" d="M97.71,121.59a.22.22,0,0,1,0-.08l-.22.19C97.72,121.78,97.71,121.69,97.71,121.59Z" transform="translate(-20.67 -22.22)"/><path class="cls-4" d="M104.09,61.81S114.43,37.71,140.42,46s15.83,37.54,10.65,40.4c0,0,9-5.82,4.14,7s-9.48,15.2-9.91,14.61-23,22.09-32.9,16.4-10.05-24.63-9.6-32S100.32,68.05,104.09,61.81Z" transform="translate(-20.67 -22.22)"/><path class="cls-5" d="M144,86.52l-.13.08.11,0S144,86.58,144,86.52Z" transform="translate(-20.67 -22.22)"/><path class="cls-5" d="M143.71,86.67h0v0Z" transform="translate(-20.67 -22.22)"/><path class="cls-5" d="M143.51,86.87a.28.28,0,0,0,.11-.08A.14.14,0,0,0,143.51,86.87Z" transform="translate(-20.67 -22.22)"/><path class="cls-5" d="M143.72,86.8s-.06,0-.05-.08h0l0,.07A.17.17,0,0,1,143.72,86.8Z" transform="translate(-20.67 -22.22)"/><path class="cls-5" d="M143.72,86.8l.1,0Z" transform="translate(-20.67 -22.22)"/><path class="cls-5" d="M144.12,87.56s-.14-.17-.16-.09-.13.28-.25.35-.24-.11-.27,0-.28.57-.09.46a4.6,4.6,0,0,0,.67-.53c.15-.21.28-.42.42-.63a.59.59,0,0,1,.17-.1l-.27.07C144.21,87.07,144.26,87.41,144.12,87.56Z" transform="translate(-20.67 -22.22)"/><path class="cls-5" d="M145,85.89V86c-.21-.05-.26.1-.32.23l.12.05c0-.06,0-.11-.07-.11a.47.47,0,0,0,.43-.2S145,85.89,145,85.89Z" transform="translate(-20.67 -22.22)"/><path class="cls-5" d="M145.18,85.91l-.05.07,0,0,0-.09Z" transform="translate(-20.67 -22.22)"/><path class="cls-5" d="M143.1,87.36a6.47,6.47,0,0,1-1,.42s0,.11,0,.09a.34.34,0,0,0-.11-.05l-.14,0-.05,0h0s0,.07,0,.1a.16.16,0,0,1,.08.06l-.08-.06a.13.13,0,0,0-.1,0,.21.21,0,0,1-.13.05.15.15,0,0,1,.13-.05l.07-.06,0,0-.34.08-.06,0c-.07.05-.14.11-.22,0h-.07l0,0,0,0-.25,0a1.27,1.27,0,0,1-.14.17l-.08-.1a.26.26,0,0,1-.07.14,1.2,1.2,0,0,0,.17.16c.09.11.07-.26.2-.06-.13-.2-.11.17-.2.06a1.2,1.2,0,0,1-.17-.16.23.23,0,0,1-.29-.05c.08-.13.19,0,.29.05a.26.26,0,0,0,.07-.14l.08.1a1.27,1.27,0,0,0,.14-.17c-.17,0-.35,0-.52.06a15.71,15.71,0,0,1-3.29,0,8.15,8.15,0,0,1-1.78-.45c-1.11-.42-2.22-.31-3.26-1.17a4.52,4.52,0,0,0-1.7-.48c-.68.24-.63,1.32-.61,1.38.15.94.54.54,1.17,1.22-.44-.41.5-.46.85.23.51,1.06,1.68.55,2.54.92a3.92,3.92,0,0,0,.74.13c1.39.48,2.8.16,4.34,0a2.9,2.9,0,0,0,1.06-.51,4.88,4.88,0,0,1,.72-.09,2,2,0,0,0,.78-.42c-.27.13-.46.25-.77.37s.07-.34.19-.44.21.17.25.1.21-.19.33-.29.11.16.13.12.2-.46.34-.44h.28a.38.38,0,0,0,.15,0l.08-.1a1.59,1.59,0,0,1-.15-.21c.05,0,.14,0,.19,0s-.14,0-.19,0a1.59,1.59,0,0,0,.15.21c.17-.24.38-.47.56-.69l0,0a.45.45,0,0,1-.47.08c.08,0,.1.08,0,.13l-.11-.08c.1-.12.19-.24.38-.14l0-.12c.05,0,.09.08.12.13l.08-.06A1.38,1.38,0,0,0,143.1,87.36Z" transform="translate(-20.67 -22.22)"/><path class="cls-5" d="M141.68,88l.06,0-.29.06C141.54,88.07,141.61,88,141.68,88Z" transform="translate(-20.67 -22.22)"/><path class="cls-5" d="M131.36,92.89l0,0-.06-.05S131.33,92.85,131.36,92.89Z" transform="translate(-20.67 -22.22)"/><polygon class="cls-5" points="110.76 70.64 110.77 70.64 110.76 70.62 110.76 70.64"/><path class="cls-5" d="M131.44,92.77s0,0,0,0S131.45,92.8,131.44,92.77Z" transform="translate(-20.67 -22.22)"/><path class="cls-5" d="M131.36,92.76l.07.08h0v0Z" transform="translate(-20.67 -22.22)"/><path class="cls-5" d="M131.36,92.76l-.06-.06Z" transform="translate(-20.67 -22.22)"/><path class="cls-5" d="M130.83,92.1s.14.16.12.12-.09-.16-.07-.18.16.14.13.1-.21-.34-.22-.31a1.21,1.21,0,0,0,0,.19,2.64,2.64,0,0,1,.1.3s0,0,0,0l.1.06C131,92.42,130.85,92.16,130.83,92.1Z" transform="translate(-20.67 -22.22)"/><path class="cls-5" d="M131.05,92.93l0-.08c.12.13.11.06.1,0l-.08-.09s0,.08.07.11c-.11-.1-.15-.1-.16-.06Z" transform="translate(-20.67 -22.22)"/><path class="cls-5" d="M131,92.82v0Z" transform="translate(-20.67 -22.22)"/><path class="cls-5" d="M131.39,92.52a1.1,1.1,0,0,1,.18-.14s-.06-.08,0-.06l.08,0h0v0h0l-.07-.06-.08-.05.08.05.06,0s0,0,0,0,0,0,0,0v0l.08,0v0s0-.06.07,0h0l.06,0-.08-.11.1.06-.08-.09-.18-.1c-.1-.06.18.17,0,0,.19.13-.09-.1,0,0l.18.1s0,0,.13,0,0,0-.13,0l.08.09-.1-.06.08.11.12-.06c.28-.12.38-.35.6-.56a2.92,2.92,0,0,1,.45-.33c.36-.24.11-.56.73-.87.22-.13.11-.41.07-.54a4.27,4.27,0,0,0-1.49,0c-.87.13-.37.15-.89.27.29-.08.56.09,0,.12-.91,0-.2.19-.46.26-.06,0,0,0-.06.07-.33,0,0,.3-.18.43s.14.19.21.3-.1,0-.11,0,0,.11.08.21c0-.06,0-.12,0-.17s.24.2.27.26-.18-.12-.14-.08.06.1.1.16-.15-.11-.13-.09.23.28.17.25l-.11,0s0,0,0,0l0,0,.18.18-.07,0,.07,0L131,92a2.68,2.68,0,0,1,.16.36v0s0,0,.16,0c0,0-.09-.07-.09-.09l.09.07c0,.07.06.14-.08,0l0,.07-.12-.12v0A1.87,1.87,0,0,0,131.39,92.52Z" transform="translate(-20.67 -22.22)"/><path class="cls-5" d="M131.63,92.29v0l.06,0C131.6,92.22,131.61,92.26,131.63,92.29Z" transform="translate(-20.67 -22.22)"/><path class="cls-5" d="M136.89,93.75l0,0h-.09S136.84,93.74,136.89,93.75Z" transform="translate(-20.67 -22.22)"/><path class="cls-5" d="M136.93,93.68Z" transform="translate(-20.67 -22.22)"/><path class="cls-5" d="M136.88,93.61s0,0,0,0S136.9,93.63,136.88,93.61Z" transform="translate(-20.67 -22.22)"/><path class="cls-5" d="M136.81,93.65l.1,0h0l0,0Z" transform="translate(-20.67 -22.22)"/><path class="cls-5" d="M136.81,93.65h0Z" transform="translate(-20.67 -22.22)"/><path class="cls-5" d="M136,93.51s.22,0,.16,0-.16-.09-.16-.11.22,0,.17,0-.37-.16-.37-.11.09.12.12.19a3.16,3.16,0,0,1,.27.2s0,0,0,0l.12,0C136.32,93.64,136,93.56,136,93.51Z" transform="translate(-20.67 -22.22)"/><path class="cls-5" d="M136.71,94l-.08,0c.18,0,.11,0,.05-.08h-.12a.16.16,0,0,0,.13,0c-.15,0-.18,0-.16.08A.59.59,0,0,0,136.71,94Z" transform="translate(-20.67 -22.22)"/><path class="cls-5" d="M136.55,94l0,0h0l0,0Z" transform="translate(-20.67 -22.22)"/><path class="cls-5" d="M136.68,93.44a.61.61,0,0,1,.06-.24c-.05,0-.1,0-.07,0h.09l0,0,0,0h0s0,0,0,0,0,0,0,0l0,0h0l.05-.07,0,0s-.06,0,.06,0v0h0l0,0-.13-.06h.12l-.12,0h-.2c-.12,0,.24.07,0,.05.23,0-.13-.05,0-.05h.2s0,0,.13,0,0,0-.13,0l.12,0h-.12l.13.06a.44.44,0,0,1,.08-.11,5,5,0,0,0,.35-.74,1.44,1.44,0,0,1,.37-.37c.32-.24,0-.53.68-.72.22-.07.14-.29.13-.39a5.33,5.33,0,0,0-1.46-.28c-.89,0-.41.09-.95.19.31-.08.55.17-.06.19-.93,0-.24.36-.5.52-.07,0,0,.1-.06.16-.36.26,0,.6-.13.91,0,.08.2.19.31.28s-.1.1-.1.14.06.14.16.21-.09-.13-.12-.2.3.08.37.12-.22,0-.17,0,.1.07.16.11-.18,0-.16,0,.35.12.28.14l-.12,0s0,0,0,0l.05,0,.25,0-.08,0,.08,0-.25,0,.34.23h0s0-.06.16-.08c0,0-.12,0-.13,0h.12c.06,0,.12.08-.05.09l.08,0-.18,0,0,0Z" transform="translate(-20.67 -22.22)"/><path class="cls-5" d="M136.74,93.09a0,0,0,0,1,0,0l.05-.06C136.68,93,136.71,93.06,136.74,93.09Z" transform="translate(-20.67 -22.22)"/><path class="cls-5" d="M143.64,93.58l0,0a.2.2,0,0,1,0,.08S143.61,93.61,143.64,93.58Z" transform="translate(-20.67 -22.22)"/><polygon class="cls-5" points="122.91 71.28 122.9 71.27 122.88 71.28 122.91 71.28"/><path class="cls-5" d="M143.47,93.49s0,0,0,0S143.5,93.48,143.47,93.49Z" transform="translate(-20.67 -22.22)"/><path class="cls-5" d="M143.49,93.58l.06-.08h0A.19.19,0,0,1,143.49,93.58Z" transform="translate(-20.67 -22.22)"/><path class="cls-5" d="M143.49,93.58l0,.08Z" transform="translate(-20.67 -22.22)"/><path class="cls-5" d="M143,94.26s.12-.18.07-.15-.17.09-.2.07.08-.21,0-.17-.37.2-.31.23a1.67,1.67,0,0,0,.31.05c.12,0,.24-.08.36-.1s0,0,0,0V94.1C143.27,94,143.06,94.25,143,94.26Z" transform="translate(-20.67 -22.22)"/><path class="cls-5" d="M143.88,93.92l-.06,0c.06-.17,0-.14-.09-.1l0,.11s.07-.06.08-.11c0,.15,0,.19,0,.2S143.88,94,143.88,93.92Z" transform="translate(-20.67 -22.22)"/><path class="cls-5" d="M143.84,94.07h0v0h.05Z" transform="translate(-20.67 -22.22)"/><path class="cls-5" d="M143.18,93.55a1,1,0,0,1-.26-.24s-.08.07-.07,0a.2.2,0,0,0,0-.08l0,0h0a.27.27,0,0,0-.07.08l0,.07,0-.07a.41.41,0,0,0,0-.07s0,0,0,0,0,0,0,0h.07l-.07-.1h0s-.08,0,0-.09v0l0-.08-.14.06.07-.1-.1.07-.11.18c-.06.1.2-.15.06,0,.14-.18-.12.07-.06,0l.11-.18s0,0,0-.15,0,0,0,.15l.1-.07-.07.1.14-.06-.09-.16c-.16-.36-.41-.57-.58-.93a1.69,1.69,0,0,1-.12-.64c0-.45-.47-.55-.14-1.17.1-.23-.12-.38-.2-.48a4.24,4.24,0,0,0-1.34.65c-.71.53-.24.38-.55.87.16-.3.55-.18.14.28-.64.72.19.63.19,1,0,.1.09.14.13.23.07.59.68.69,1,1.11.1.1.34,0,.51,0s.07.17.12.22a.45.45,0,0,0,.35,0c-.11,0-.2,0-.31-.07s.24-.2.32-.22-.1.19-.05.17.14,0,.22,0-.11.15-.09.14.32-.21.31-.13V94s0,0,0,0l.07,0a1.28,1.28,0,0,1,.14-.21s0,.08,0,.1,0-.08,0-.1a1.28,1.28,0,0,0-.14.21,2.93,2.93,0,0,1,.43-.13l0,0c-.06,0-.09-.06,0-.21,0,.06,0,.11-.08.1l0-.1c.08,0,.16-.06.09.11l.07,0a.85.85,0,0,1-.09.15h0A1.37,1.37,0,0,0,143.18,93.55Z" transform="translate(-20.67 -22.22)"/><path class="cls-5" d="M142.79,93.23h0l0-.09C142.7,93.24,142.75,93.24,142.79,93.23Z" transform="translate(-20.67 -22.22)"/><path class="cls-5" d="M109.18,110.56a.24.24,0,0,1,.12,0,.64.64,0,0,1-.1-.16C109.16,110.35,109.18,110.46,109.18,110.56Z" transform="translate(-20.67 -22.22)"/><path class="cls-5" d="M109.4,110.56h0v0Z" transform="translate(-20.67 -22.22)"/><path class="cls-5" d="M109.58,110.42s-.07,0-.1,0S109.54,110.48,109.58,110.42Z" transform="translate(-20.67 -22.22)"/><path class="cls-5" d="M109.4,110.32a.36.36,0,0,1,0,.2h0a.18.18,0,0,1,0-.07A.49.49,0,0,1,109.4,110.32Z" transform="translate(-20.67 -22.22)"/><path class="cls-5" d="M109.4,110.32l-.06-.17Z" transform="translate(-20.67 -22.22)"/><path class="cls-5" d="M109.25,108.63c0-.06.07.42.12.31s.27-.37.43-.37.16.43.23.32.69-.7.42-.71a3.54,3.54,0,0,0-1,.25,5.68,5.68,0,0,0-.67.73c-.06,0-.13,0-.21,0l.32.13C109,109.4,109,108.77,109.25,108.63Z" transform="translate(-20.67 -22.22)"/><path class="cls-5" d="M108.3,110.67l0-.17c.28.22.28.07.31-.1l-.16-.19c0,.06,0,.18.12.24-.25-.19-.4-.15-.47,0A2,2,0,0,0,108.3,110.67Z" transform="translate(-20.67 -22.22)"/><path class="cls-5" d="M108,110.49l0-.07,0,0,0,.11Z" transform="translate(-20.67 -22.22)"/><path class="cls-5" d="M110,110a1.62,1.62,0,0,1,.85.28c.06-.08.12-.17.12-.11a.67.67,0,0,0,0,.19l.09.08h.06a.29.29,0,0,0,.1-.17l0-.17,0,.17a.47.47,0,0,0,0,.16.09.09,0,0,1,.11,0c-.07,0-.1,0-.11,0l-.09,0,0,0a1.81,1.81,0,0,1,.18.21s0,0,.07,0,.19,0,.06.19l0,0,0,0,0,0,.1.19a1.18,1.18,0,0,1,.3-.07l-.15.19a.51.51,0,0,1,.24-.09c.08-.13.17-.26.22-.35s-.43.23-.14-.12c-.29.35.28-.08.14.12s-.14.22-.22.35c.11,0,.1.12,0,.33-.22.06-.12-.12,0-.33a.51.51,0,0,0-.24.09l.15-.19a1.18,1.18,0,0,0-.3.07l.2.41a2.46,2.46,0,0,0,1.31,1.32,4.66,4.66,0,0,0,2,.19,2.7,2.7,0,0,1,1.55.25,2.6,2.6,0,0,0,.55.39c.15.1.29.41-.08.9-.13.17-.16.21-.15.21l.1,0a.38.38,0,0,1,.13,0l.2,0,.43-.06,1-.12a7.66,7.66,0,0,0,1.2-.25c.84-.32,1-.6,1-.88A3.85,3.85,0,0,1,121,112c0,.45-.37.47-.56.29s-.31-.57-.13-1.24a1.34,1.34,0,0,0-1-1.77c-.7-.25-1.45-.21-2.15-.49a2.83,2.83,0,0,0-1.2,0,3,3,0,0,0-2,.28c-.14.08-.18.14-.1.18s.29.11.46.18-.21.42-.53.41c-.17-.06-.14-.39-.29-.55a1.74,1.74,0,0,0-1.08-.47,4.94,4.94,0,0,1,1,.52c.17.14-.56.29-.77.28s.16-.44,0-.41-.4-.07-.63,0,.15-.35.09-.33c-.29-.06-.73.42-.79.24l-.21-.32a.27.27,0,0,0-.17-.08l-.15.07a3.43,3.43,0,0,1-.09.51,1.43,1.43,0,0,0-.14-.2,1.43,1.43,0,0,1,.14.2,3.43,3.43,0,0,0,.09-.51,9.14,9.14,0,0,0-1,.6v0c.15,0,.31,0,.4.33,0-.11,0-.24.06-.26v.25c-.15.11-.27.23-.35-.13l-.09.16a.91.91,0,0,1,0-.35l-.09,0A3.84,3.84,0,0,0,110,110Z" transform="translate(-20.67 -22.22)"/><path class="cls-5" d="M111.23,110.4h-.07a1,1,0,0,1,.16.19C111.43,110.37,111.33,110.38,111.23,110.4Z" transform="translate(-20.67 -22.22)"/><path class="cls-2" d="M157.18,119.63a6.27,6.27,0,0,0-3.31.44c-4.16,1.68-6.63,2.69-9.93,5.74l10.78-9.9c1.68-1.54,3.48-4,2-5.82a2.78,2.78,0,0,0-2.29-1,7.05,7.05,0,0,0-4.18,2.1,116.11,116.11,0,0,0-11.49,11.13c3.25-4.58,10.1-11.89,12.74-16.85.2-.38.91-2.1.37-2.85-1.08-1.51-3.53-2.06-4.75-1.36a12.12,12.12,0,0,0-2.47,2.42c-3.39,4.53-7.18,12.73-11.34,16.69a.16.16,0,0,1-.25-.18A76.94,76.94,0,0,1,140,107.57c.84-1.27,1.22-3.14.2-4.29a2.53,2.53,0,0,0-2.52-.66,6.37,6.37,0,0,0-3,2.19c-4.74,5.24-6.11,10.28-8.26,17-3.58-2-2.41-3.06-4.3-6.7a2.06,2.06,0,0,0-.91-1,1.79,1.79,0,0,0-1.55.19c-1.91,1.08-2.36,3.65-2.14,5.83.5,4.82,1.06,4.28,4,8.15a10.3,10.3,0,0,1,2.09,3.71,6.62,6.62,0,0,1-.7,4.35c-1.49,3-4.34,5-7.17,6.82-9.67,6-18,4.18-29.22,6.4l-2.71,1.59a10,10,0,0,1,2.83.72c4.5,1.79,8,2.2,12.78,2.6a1.81,1.81,0,0,1,.23,0,92,92,0,0,0,17.88-4.06,6.1,6.1,0,0,1,1.66-.33l.09,0,.91-.49c.29-.16.58-.34.87-.53-.19.1,1.21-.86,1.2-.86a18.79,18.79,0,0,1,1.7-1.15,32.35,32.35,0,0,1,5.87-5.09c4.86-3.16,7.45-2.25,12.11-5.23,1.74-1.12,3.05-3.62,5.86-6.11,3.09-2.75,5.57-3.58,8.94-6.59C158.09,122.77,160.77,120.15,157.18,119.63Z" transform="translate(-20.67 -22.22)"/><path class="cls-4" d="M103.1,153.68a50.69,50.69,0,0,1,7-1.52l1.1-.35c0-.06,0-.12,0-.19a32.36,32.36,0,0,1-14.83-1.82c-3.13-1.19-6.32-2.66-8.36-5.31a6.57,6.57,0,0,1-1.52-4.13,10.25,10.25,0,0,1,1.33-4c2.11-4.37,2.76-3.94,2.32-8.76-.2-2.19-1.14-4.63-3.23-5.31a1.78,1.78,0,0,0-1.56.11,2.09,2.09,0,0,0-.69,1.18c-1.15,3.93.21,4.77-2.93,7.4-3.4-6.19-5.72-10.87-11.38-15.09A6.37,6.37,0,0,0,67,114.29a2.49,2.49,0,0,0-2.34,1.13c-.78,1.32-.05,3.08,1,4.16a76,76,0,0,1,9.21,11.06.15.15,0,0,1-.2.22c-4.85-3.08-10.15-10.4-14.35-14.19a12.35,12.35,0,0,0-2.89-1.89c-1.34-.45-3.63.56-4.4,2.25-.38.84.64,2.39.91,2.73,3.55,4.35,11.68,10.2,15.75,14.07a113.57,113.57,0,0,0-13.42-8.7,7,7,0,0,0-4.5-1.26,2.79,2.79,0,0,0-2.06,1.43c-1.06,2.07,1.18,4.12,3.12,5.31l12.5,7.63c-3.83-2.35-6.44-2.86-10.85-3.72a6.52,6.52,0,0,0-3.34.21c-3.42,1.21-.29,3.26,1.34,4.22,3.89,2.31,6.48,2.65,10,4.74,3.24,1.9,5,4.11,6.93,4.87,5.15,2,7.51.64,12.89,2.8a26.64,26.64,0,0,1,4,2C92.15,155,97.23,155.3,103.1,153.68Z" transform="translate(-20.67 -22.22)"/><path class="cls-5" d="M42.13,130l-.27-.43a1,1,0,0,1,.07.26C42,129.89,42,129.92,42.13,130Z" transform="translate(-20.67 -22.22)"/><path class="cls-5" d="M41.62,129.12l0-.08-.06,0Z" transform="translate(-20.67 -22.22)"/><path class="cls-5" d="M41.11,128.39a1.67,1.67,0,0,0,.23.39A1.64,1.64,0,0,0,41.11,128.39Z" transform="translate(-20.67 -22.22)"/><path class="cls-5" d="M41.42,129c0-.06,0-.1.09,0h0l-.17-.21A1.44,1.44,0,0,1,41.42,129Z" transform="translate(-20.67 -22.22)"/><path class="cls-5" d="M41.42,129v.19A1.28,1.28,0,0,0,41.42,129Z" transform="translate(-20.67 -22.22)"/><path class="cls-5" d="M40.57,129.28c-.07-.06.15-.17,0-.3a8.83,8.83,0,0,1-.73-.94c-.13-.13,0-.51-.17-.64-.27-.33-1.07-1.14-.76-.59.5.83.87,1.35,1.33,2.08.41.57.91,1.06,1.36,1.62a3.6,3.6,0,0,1,.29.5l-.33-.72C41.43,130,40.93,129.74,40.57,129.28Z" transform="translate(-20.67 -22.22)"/><path class="cls-5" d="M44.17,133.12,44,133a2.15,2.15,0,0,0-.71-1l0,.22c.15.18.22.17.14,0a4,4,0,0,0,.73,1.23C44.16,133.29,44.23,133.24,44.17,133.12Z" transform="translate(-20.67 -22.22)"/><path class="cls-5" d="M44.31,133.56l-.18-.21s0,0,0,0l.19.2Z" transform="translate(-20.67 -22.22)"/><path class="cls-5" d="M40,126.85c-.59-1-1-2.07-1.49-3-.08-.06-.15-.09-.17-.2a1.12,1.12,0,0,0,0-.27l-.17-.45-.08-.14h0c-.06-.07-.09,0-.1,0a1.09,1.09,0,0,1,0,.19v-.19a.87.87,0,0,0,0-.26,2.31,2.31,0,0,1-.18-.42,1.6,1.6,0,0,1,.18.42l.14.24.05.06-.39-1-.11-.2a1,1,0,0,1-.21-.65l-.07-.18v0l-.26-.78c-.1-.15-.21-.3-.31-.46l0-.22a.63.63,0,0,1-.21-.24,3.87,3.87,0,0,0,0,.45c-.05.21.36.3.22.59.14-.29-.27-.38-.22-.59a3.87,3.87,0,0,1,0-.45,1.67,1.67,0,0,1-.19-.86,1.15,1.15,0,0,1,.19.86.63.63,0,0,0,.21.24l0,.22c.1.16.21.31.31.46l-.49-1.55a80.3,80.3,0,0,1-2.44-10.23l-.34-2.92c-.09-1-.12-1.91-.17-2.84-.09-3.73-.54-7.14.19-10.88a20.44,20.44,0,0,0,.3-2.74c.06-1,.17-2,.23-2.71-.19-1.89-1.32-1.08-1.39-1a3,3,0,0,0-.78,1.69c-.13.67-.23,1.49-.55,2.67.41-1.6.45,1.22-.18,2.74-1,2.22-.24,5.44-.22,8.19a21,21,0,0,0,.17,2.25c.15,4.31,1.24,8.2,2.39,12.56a24.33,24.33,0,0,0,1.29,3c.29.68.44,1.46.65,2a11.42,11.42,0,0,0,1.1,2.27c-.37-.78-.69-1.33-1-2.23-.23-.6.44.31.65.69.11.15,0,.5.1.65a7.94,7.94,0,0,0,.61,1c.12.14-.11.22-.05.29.28.51.72.8.83,1.16l.24.74a2.78,2.78,0,0,0,.19.44l.19.25a.59.59,0,0,1,.17-.24l.15.51-.15-.51a.59.59,0,0,0-.17.24l.7,1,.76,1v0a3.52,3.52,0,0,1-.55-1.32c0,.22,0,.22-.15,0l0-.22a2.51,2.51,0,0,1,.54,1.11l.21.2c0,.13,0,.16-.08.22l.15.23A4.44,4.44,0,0,0,40,126.85Z" transform="translate(-20.67 -22.22)"/><path class="cls-5" d="M37.92,122.49l.1.2-.32-.85C37.65,122,37.79,122.26,37.92,122.49Z" transform="translate(-20.67 -22.22)"/><path class="cls-5" d="M167.35,74.64l.11-.46a.57.57,0,0,1-.13.21C167.28,74.49,167.32,74.55,167.35,74.64Z" transform="translate(-20.67 -22.22)"/><path class="cls-5" d="M167.57,73.76l0-.08v-.07Z" transform="translate(-20.67 -22.22)"/><path class="cls-5" d="M167.69,73a1.42,1.42,0,0,0-.08.4A1.41,1.41,0,0,0,167.69,73Z" transform="translate(-20.67 -22.22)"/><path class="cls-5" d="M167.49,73.58s.09-.06.1,0h0l0-.25A.66.66,0,0,1,167.49,73.58Z" transform="translate(-20.67 -22.22)"/><path class="cls-5" d="M167.49,73.58l-.12.13Z" transform="translate(-20.67 -22.22)"/><path class="cls-5" d="M166.71,73.19c0-.08.22,0,.2-.18A6.05,6.05,0,0,1,167,72c0-.17.29-.37.26-.53,0-.39-.15-1.39-.23-.83-.11.84-.15,1.4-.28,2.15s-.06,1.24-.12,1.88a2.05,2.05,0,0,1-.14.5c.1-.2.18-.42.27-.65S166.65,73.71,166.71,73.19Z" transform="translate(-20.67 -22.22)"/><path class="cls-5" d="M166.36,77.93l0-.25a1.78,1.78,0,0,0,.32-1.08l-.16.13c0,.22,0,.26.12.09a3.49,3.49,0,0,0-.47,1.2C166.22,78,166.29,78,166.36,77.93Z" transform="translate(-20.67 -22.22)"/><path class="cls-5" d="M166.11,78.27l0-.25h0l0,.25Z" transform="translate(-20.67 -22.22)"/><path class="cls-5" d="M167.82,71.22c.16-1.06.39-2.06.53-3a.26.26,0,0,1,0-.24.91.91,0,0,0,.11-.22l.07-.43v-.15h0c0-.08,0-.06-.09,0a.85.85,0,0,1-.11.14l.11-.14a.63.63,0,0,0,.09-.22,2,2,0,0,1,0-.41,1,1,0,0,1,0,.41v.32l.15-1V66a1,1,0,0,1,.11-.61l0-.18,0,0,0-.06.08-.75c0-.17-.08-.33-.1-.5l.13-.17a.5.5,0,0,1-.1-.28c-.08.13-.17.25-.23.36s.22.39,0,.57c.24-.18-.11-.41,0-.57s.15-.23.23-.36a1.38,1.38,0,0,1,.16-.78,1,1,0,0,1-.16.78.5.5,0,0,0,.1.28l-.13.17c0,.17.07.33.1.5L169,63a32,32,0,0,0-.73-9.65,20.79,20.79,0,0,0-.72-2.66,19.55,19.55,0,0,0-1-2.52,11.92,11.92,0,0,0-1.28-2.3,15.91,15.91,0,0,0-1.59-2c-.61-.61-1.14-1.3-1.79-1.89S160.68,40.68,160,40a17.8,17.8,0,0,0-2.25-1.51c-.87-.48-1.8-.81-2.41-1.09-1.79-.38-1.31,1-1.27,1a2.63,2.63,0,0,0,1.2,1.2A6.59,6.59,0,0,1,157.24,41c-.53-.49-.24-.48.3-.19a5.78,5.78,0,0,1,.91.61,4.28,4.28,0,0,1,.44.4,2.42,2.42,0,0,1,.32.49,11,11,0,0,0,2.19,2.49,15.34,15.34,0,0,1,1.28,1.27,13.75,13.75,0,0,1,1,1.44c.3.49.58,1,.91,1.63a28.5,28.5,0,0,1,2.69,10.34,26.75,26.75,0,0,0,.38,2.8,14.08,14.08,0,0,1-.17,1.84c-.05.81,0,1.52,0,2.21.06-.76,0-1.32,0-2.16,0-.56.29.41.33.79,0,.17-.24.39-.19.56a5.42,5.42,0,0,0,0,1c0,.17-.21.12-.19.2,0,.51.25.94.14,1.26s-.12.46-.2.67a3,3,0,0,0-.08.41v.29a.54.54,0,0,1,.27-.09l-.16.45.16-.45a.54.54,0,0,0-.27.09c0,.68,0,1.48,0,2.21h0a3.32,3.32,0,0,1,.36-1.24c-.08.18-.15.14-.12-.07l.14-.15a1.69,1.69,0,0,1-.23,1.1l0,.25c0,.11-.13.09-.19.11l0,.25A3.76,3.76,0,0,0,167.82,71.22Z" transform="translate(-20.67 -22.22)"/><path class="cls-5" d="M168.49,66.88v.21l.14-.82A.88.88,0,0,0,168.49,66.88Z" transform="translate(-20.67 -22.22)"/></svg>