<svg id="Calque_1" data-name="Calque 1" xmlns="http://www.w3.org/2000/svg" viewBox="0 0 489.35 516"><defs><style>.cls-1{fill:#e75a1e;}</style></defs><title>coeurs</title><path class="cls-1" d="M585.65,268.29c-.07-.43-.13-.86-.19-1.29.1.75,0-.28-.06-.52-.11-.93-.21-1.87-.29-2.8-.16-1.8-.27-3.6-.32-5.4a97,97,0,0,1,.28-10.78c.07-.86.15-1.72.25-2.58,0-.43.09-.86.14-1.29,0-.21.06-.42.08-.64.1-.74-.09.65,0-.09.26-1.78.55-3.55.9-5.32a102.93,102.93,0,0,1,2.63-10.48c.55-1.79,1.14-3.57,1.79-5.33.3-.82.6-1.63.92-2.43l.48-1.21.25-.6c.28-.68-.24.55.05-.12a110.24,110.24,0,0,1,10.45-19q1.54-2.23,3.19-4.38l.36-.46.81-1c.59-.73,1.19-1.45,1.8-2.17a106,106,0,0,1,7.44-7.84c1.31-1.24,2.64-2.45,4-3.62.66-.56,1.32-1.11,2-1.65.34-.28.67-.55,1-.81l.51-.4c.58-.45-.47.35.12-.09a96.83,96.83,0,0,1,18.52-11l1.19-.52c.47-.21,0,0-.08,0l.6-.25c1-.42,2-.81,3-1.18q2.79-1,5.64-1.83c1.91-.54,3.84-1,5.78-1.41.93-.2,1.87-.37,2.81-.53l1.41-.22c.53-.08.09,0,0,0,.31,0,.62-.08.94-.12a66,66,0,0,1,11.76-.36q1.39.09,2.79.24c.19,0,1.31.16.64.07.54.07,1.07.16,1.6.25a51.08,51.08,0,0,1,5.6,1.3A38.57,38.57,0,0,1,704.86,172a32.76,32.76,0,0,1,3.32,4.26,56.39,56.39,0,0,1,3.14,5.22,57,57,0,0,1,4.37,10.7c5.13,16.71,4.33,34.28.09,51.08C711.31,261,703.65,277.42,695,293.47c-9.3,17.23-19.53,34-29.45,50.84l-30.9,52.6-31,52.86L596,462.66l6.15-1.61c-7-5.17-13.39-10.13-20.2-15.83s-13.27-11.47-19.63-17.51a420.69,420.69,0,0,1-35.62-38.35c-5.57-6.8-10.44-13.15-15.62-20.36s-10-14.41-14.67-21.85a414,414,0,0,1-25.05-46.23c-7.93-17.15-15.12-35.87-17.41-54.53a99.23,99.23,0,0,1,.26-28.24,74.83,74.83,0,0,1,2.86-11.23c.29-.83.58-1.66.89-2.48l.48-1.24c.06-.16.67-1.61.39-1,.76-1.75,1.57-3.48,2.46-5.17a76.79,76.79,0,0,1,6-9.7l.7-.94.59-.75c.64-.79,1.29-1.57,2-2.33q1.86-2.11,3.88-4.07c1.33-1.3,2.73-2.53,4.17-3.7l.5-.4s.57-.45.22-.18.2-.15.22-.16l.69-.51c.74-.54,1.5-1.07,2.27-1.57a55.16,55.16,0,0,1,4.92-2.9q1.13-.59,2.28-1.11l1.15-.52c-.74.32.66-.26.88-.35a50.28,50.28,0,0,1,10.66-2.8c-.76.11.27,0,.51-.06l1.53-.14c1-.07,2-.12,3-.14a50.37,50.37,0,0,1,5.89.26l.89.1c-.09,0-.61-.09-.08,0s.89.13,1.34.21c1,.18,2.07.38,3.09.62a55.62,55.62,0,0,1,5.63,1.63c.93.32,1.84.67,2.75,1a4,4,0,0,1,.6.26c.48.21,1,.43,1.45.66,1.78.84,3.53,1.77,5.23,2.78s3.52,2.19,5.19,3.4l1.12.82a5.46,5.46,0,0,1,.55.43q1.26,1,2.49,2.07a74.68,74.68,0,0,1,8.43,8.63,50.93,50.93,0,0,1,3.23,4.26q1.78,2.56,3.34,5.26c1,1.77,2,3.59,2.86,5.44.42.86.82,1.74,1.21,2.62l.25.58c-.15-.35.16.39.15.36.21.52.43,1,.63,1.58,6.42,16.32,8.92,33.89,11.59,51.12.62,3.95,1.24,7.9,1.92,11.85l4.34-5.7h-.19a4.5,4.5,0,0,0,0,9h.19c3.17.17,4.81-3,4.34-5.7-3-17.52-4.94-35.31-9.94-52.43a102.66,102.66,0,0,0-10.28-24.45A79.09,79.09,0,0,0,549,171.88c-13-11-30-17.95-47.18-15.73-16.16,2.09-30.34,11.29-40.28,24A83.37,83.37,0,0,0,444.21,228c-1,20.4,4.32,40.66,11.71,59.51a381,381,0,0,0,24.74,50.83,420.2,420.2,0,0,0,29.82,44.83,430.11,430.11,0,0,0,35.84,41.39,416.37,416.37,0,0,0,40.2,35.81q5.49,4.29,11.11,8.41c2,1.44,5,.31,6.16-1.62L635.61,413l32-54.44c10.32-17.57,20.87-35,30.86-52.79,9.4-16.68,18.12-34,23.81-52.32,5.55-17.91,7.85-36.93,4.16-55.45-3.38-17-12.15-34-28-42.38-15-7.92-33.13-7.51-49-2.69a99.47,99.47,0,0,0-39.79,23.88A113.49,113.49,0,0,0,584,214.74a101.32,101.32,0,0,0-7,55.95c.36,2.4,3.39,3.73,5.54,3.14C585.08,273.12,586,270.71,585.65,268.29Z" transform="translate(-444.1 -149.48)"/><path class="cls-1" d="M827,513.91c-.06-.36-.11-.71-.16-1.06.17,1.19,0,0,0-.22-.07-.58-.13-1.17-.19-1.76-.12-1.41-.21-2.83-.25-4.25a71.22,71.22,0,0,1,.23-8.13c.05-.58.11-1.17.17-1.76,0-.35.09-.7.13-1.05.13-1.2-.16,1,0-.21.21-1.4.44-2.79.72-4.18a75.25,75.25,0,0,1,2-7.72c.38-1.25.8-2.48,1.24-3.7l.69-1.83.4-1c.06-.15.54-1.26.09-.23,1.1-2.5,2.27-5,3.59-7.34a81.26,81.26,0,0,1,4.31-7c.74-1.07,1.51-2.12,2.3-3.15-.67.87.47-.59.61-.77.52-.64,1.05-1.28,1.6-1.9a77.43,77.43,0,0,1,5.37-5.65c.94-.89,1.9-1.77,2.89-2.61l1.63-1.36.83-.66c.74-.59-.62.45.21-.16a73.81,73.81,0,0,1,14-8.28l.81-.36c.66-.29-1,.4.07,0l2.17-.83c1.46-.53,2.94-1,4.44-1.43,1.32-.36,2.65-.69,4-1,.7-.15,1.41-.28,2.11-.4l1.16-.18c1.29-.19-.94.09.35,0a52.82,52.82,0,0,1,8.89-.26c.76.05,1.52.13,2.28.21.2,0,.88.14-.06,0,.37.06.75.11,1.12.18a39.18,39.18,0,0,1,4.41,1c.6.18,1.19.38,1.78.59l1.05.4c1.17.44-.81-.4.31.13a37.12,37.12,0,0,1,4,2.14c.54.34,1.06.69,1.58,1.07.1.07,1.08.86.32.23l.91.76a32.52,32.52,0,0,1,3.22,3.21l.64.75c.07.08.87,1.12.28.33.39.53.78,1.06,1.15,1.61a41.38,41.38,0,0,1,2.44,4.1c.37.7.73,1.42,1.06,2.15l.33.73c.54,1.2-.31-.84.16.4.58,1.49,1.12,3,1.59,4.52s.85,3.06,1.19,4.62c.16.71.3,1.42.43,2.14.08.43.16.86.23,1.29,0,.16.27,1.88.15.95a68.16,68.16,0,0,1,.54,9.89c0,1.51-.1,3-.21,4.52-.06.79-.13,1.57-.22,2.36,0,.43-.1.86-.15,1.29-.16,1.41.14-.89-.06.52a99.58,99.58,0,0,1-2,9.84c-.84,3.3-1.84,6.56-3,9.77-.54,1.55-1.11,3.1-1.71,4.63-.27.71-.55,1.4-.83,2.1l-.51,1.26c-.21.49-.24.55-.08.18-.12.27-.23.55-.35.83-2.71,6.29-5.79,12.41-9,18.43-6.91,12.78-14.5,25.2-21.86,37.72q-23.14,39.42-46.3,78.82l-5.56,9.48,6.15-1.62q-2-1.45-4-2.94l-2-1.49-.23-.18-1.13-.88q-3.87-3-7.65-6.21-7.56-6.32-14.7-13.12a312.76,312.76,0,0,1-26.51-28.57q-1.56-1.9-3.09-3.83l-1.27-1.62c-.25-.32-.51-.64-.76-1s-.33-.43-.05-.06c-.16-.22-.33-.44-.5-.65q-3-3.91-5.86-7.92-5.74-8-11-16.37A309.47,309.47,0,0,1,741.64,538c-.73-1.59-1.46-3.2-2.17-4.81l-.91-2.11c-.6-1.4.31.77-.27-.63-.23-.57-.47-1.14-.7-1.72-1.4-3.43-2.7-6.91-3.87-10.42s-2.2-7.06-3.05-10.65c-.4-1.64-.75-3.28-1.06-4.93-.18-.9-.33-1.8-.48-2.71l-.21-1.35c-.08-.55-.09-.6,0-.16,0-.3-.07-.6-.11-.9a82.71,82.71,0,0,1-.62-10.43c0-1.82.09-3.64.24-5.46.08-.91.18-1.81.28-2.72,0-.12.12-.88,0-.17.08-.53.16-1.07.25-1.61a56.65,56.65,0,0,1,2.09-8.3c.23-.68.47-1.36.73-2l.39-1c.06-.16.54-1.28.1-.25.57-1.33,1.18-2.63,1.84-3.91a57.43,57.43,0,0,1,4.54-7.31l.64-.86c-.59.78-.09.12.06-.07.41-.51.83-1,1.25-1.5,1-1.16,2-2.28,3.15-3.34.93-.9,1.89-1.75,2.88-2.57l.82-.66c-.88.7,0,0,.19-.14q.92-.66,1.86-1.29c1.1-.73,2.24-1.41,3.41-2,.61-.33,1.23-.63,1.85-.93l.94-.42c-.69.31-.23.09.2-.08a39.13,39.13,0,0,1,8-2.16c1.18-.2-1,.08.2,0l1-.1c.75-.06,1.5-.1,2.25-.11a36.63,36.63,0,0,1,4.44.18c.19,0,1.42.18.27,0l1.09.17c.67.12,1.33.25,2,.39a43.1,43.1,0,0,1,4.44,1.26c.7.24,1.39.51,2.08.78,1.11.42-.55-.27.12,0l.85.38c1.47.68,2.9,1.44,4.29,2.26,1.19.7,2.35,1.46,3.47,2.25l.92.67c.11.08,1.1.86.29.21.69.55,1.37,1.11,2,1.69a56.12,56.12,0,0,1,6.24,6.38l.6.74c.09.1.86,1.1.24.28.46.61.9,1.22,1.34,1.84q1.3,1.86,2.45,3.82c.78,1.33,1.5,2.7,2.18,4.09.31.65.61,1.31.91,2,.13.3.27.61.39.91-.39-.92.25.61.31.77,4.84,12.24,6.71,25.43,8.71,38.36.46,2.92.92,5.85,1.42,8.77l4.34-5.7h-.14a4.52,4.52,0,0,0-4.5,4.5,4.6,4.6,0,0,0,4.5,4.5h.14c3.17.17,4.81-3,4.34-5.7-2.28-13.18-3.71-26.57-7.51-39.44s-10.15-24.59-20.46-33.19c-10.13-8.44-23.08-13.6-36.39-11.81-12.19,1.64-22.9,8.72-30.38,18.32A63.41,63.41,0,0,0,719.25,484c-.77,15.41,3.21,30.75,8.8,45a299.91,299.91,0,0,0,40.71,71.47,317.32,317.32,0,0,0,57.08,58c2.79,2.17,5.6,4.31,8.45,6.39,2,1.44,5,.32,6.16-1.61l47.81-81.4c7.71-13.12,15.6-26.16,23-39.43,7.05-12.56,13.6-25.61,17.81-39.43,4.13-13.53,5.74-27.89,2.88-41.84-2.63-12.87-9.44-25.75-21.48-32-11.5-6-25.35-5.71-37.51-2a75.37,75.37,0,0,0-30,18.08c-16.49,15.95-26.44,39.11-25.54,62.14a79.44,79.44,0,0,0,.9,9c.35,2.33,3.41,3.83,5.53,3.14C826.43,518.62,827.4,516.41,827,513.91Z" transform="translate(-444.1 -149.48)"/></svg>